<svg width="98" height="110" viewBox="0 0 98 110" fill="none" xmlns="http://www.w3.org/2000/svg">
<g clip-path="url(#clip0_0_1158)">
<path d="M19.8196 47.5361C19.8196 47.5361 34.9099 59.9641 50.0399 72.3614C50.0399 72.3614 50.0093 72.3217 49.9787 72.282L49.9481 72.2423C49.8132 71.903 49.608 71.5547 49.4424 71.1757C48.7406 69.6905 47.9561 68.0158 47.1624 66.4114C44.3859 60.5103 41.1037 53.5426 38.3793 47.7912C37.0369 44.9002 35.7989 42.3087 34.8794 40.2947C34.4044 39.2679 34.0121 38.4306 33.7117 37.7124C33.5768 37.3731 33.4328 37.1042 33.3194 36.875C33.2979 36.765 33.2673 36.7252 33.2367 36.6855C22.6021 44.821 19.7517 46.9552 19.7517 46.9552C18.9176 47.5982 18.5502 47.1216 19.3842 46.4786C19.3842 46.4786 22.3629 44.1822 33.5013 35.4683C33.7802 36.0765 34.5433 37.6411 35.6555 39.823C36.6147 41.8064 37.8528 44.3978 39.2654 47.2979C42.0602 53.0584 45.3821 59.9955 48.1587 65.8967C50.0985 69.9734 52.2254 74.5391 53.1324 76.3726C48.4868 72.4823 43.8412 68.592 39.4894 64.9185C35.7466 61.7885 32.2669 58.8356 29.3045 56.3072C23.3398 51.2809 19.343 47.9035 19.343 47.9035C18.6421 47.2408 19.0086 46.8949 19.8196 47.5361Z" fill="#FFDDA0"/>
<path d="M28.6003 44.0593C28.6003 44.0593 35.7493 52.9216 40.2594 58.6894C44.7297 64.4878 51.4419 73.6869 51.4419 73.6869C51.6868 74.0046 51.2102 74.372 50.9653 74.0543C50.9653 74.0543 43.7765 65.2227 39.3062 59.4242C34.8359 53.6258 28.1237 44.4267 28.1237 44.4267C27.9491 44.1181 28.3463 43.8119 28.6003 44.0593Z" fill="#FFDDA0"/>
<path d="M19.3026 47.1117C19.3026 47.1117 23.2686 47.4101 25.8006 47.7376C28.3326 48.065 32.2441 48.7854 32.2441 48.7854C32.3847 48.8036 32.3301 49.2256 32.1895 49.2074C32.1895 49.2074 28.2235 48.909 25.6915 48.5816C23.1594 48.2541 19.248 47.5337 19.248 47.5337C19.1074 47.5155 19.1926 47.1332 19.3026 47.1117Z" fill="#FFDDA0"/>
<path d="M22.8161 50.355C22.8161 50.355 26.2897 50.5897 28.4701 50.8717C30.681 51.1934 34.0695 51.8105 34.0695 51.8105C34.2102 51.8286 34.1159 52.2813 34.0149 52.2325C34.0149 52.2325 30.5413 51.9977 28.3609 51.7157C26.1499 51.394 22.7615 50.777 22.7615 50.777C22.6605 50.7282 22.6754 50.3368 22.8161 50.355Z" fill="#FFDDA0"/>
<path d="M26.6689 53.4634C26.6689 53.4634 29.5799 53.6254 31.4086 53.8619C33.2373 54.0984 36.0937 54.6824 36.0937 54.6824C36.1946 54.7312 36.14 55.1532 36.0391 55.1044C36.0391 55.1044 33.1281 54.9424 31.2994 54.7059C29.4708 54.4694 26.6143 53.8854 26.6143 53.8854C26.5134 53.8366 26.5986 53.4543 26.6689 53.4634Z" fill="#FFDDA0"/>
<path d="M30.6806 56.4494C30.6806 56.4494 32.9585 56.5294 34.3958 56.7511C35.8728 56.9421 38.0656 57.4045 38.0656 57.4045C38.136 57.4136 38.0814 57.8356 38.011 57.8265C38.011 57.8265 35.7331 57.7464 34.2958 57.5248C32.8188 57.3337 30.626 56.8714 30.626 56.8714C30.5556 56.8623 30.6011 56.5106 30.6806 56.4494Z" fill="#FFDDA0"/>
<path d="M33.8879 59.2956C33.8879 59.2956 35.8845 59.3393 37.1505 59.503C38.4165 59.6667 40.3586 60.1324 40.3586 60.1324C40.4289 60.1415 40.3743 60.5635 40.304 60.5544C40.304 60.5544 38.3074 60.5107 37.0414 60.347C35.7754 60.1833 33.8333 59.7176 33.8333 59.7176C33.7721 59.6381 33.8175 59.2865 33.8879 59.2956Z" fill="#FFDDA0"/>
<path d="M37.1046 62.0714C37.1046 62.0714 38.7496 62.0697 39.8046 62.2061C40.8596 62.3425 42.45 62.7628 42.45 62.7628C42.5203 62.7719 42.4658 63.1939 42.3954 63.1848C42.3954 63.1848 40.7505 63.1866 39.6955 63.0501C38.6404 62.9137 37.0501 62.4934 37.0501 62.4934C36.9797 62.4843 37.0649 62.1021 37.1046 62.0714Z" fill="#FFDDA0"/>
<path d="M40.2259 64.4774C40.2259 64.4774 41.5192 64.4301 42.3632 64.5393C43.2072 64.6484 44.4459 65.0232 44.4459 65.0232C44.4765 65.0629 44.4219 65.4849 44.3913 65.4452C44.3913 65.4452 43.098 65.4924 42.254 65.3833C41.41 65.2741 40.1713 64.8994 40.1713 64.8994C40.1713 64.8994 40.1861 64.508 40.2259 64.4774Z" fill="#FFDDA0"/>
<path d="M42.9128 66.6484C42.9128 66.6484 43.8544 66.5556 44.4171 66.6284C44.9797 66.7012 45.8668 67.0304 45.8668 67.0304C45.8974 67.0702 45.8428 67.4922 45.8122 67.4524C45.8122 67.4524 44.8706 67.5452 44.3079 67.4724C43.7452 67.3996 42.8582 67.0704 42.8582 67.0704C42.8276 67.0307 42.9128 66.6484 42.9128 66.6484Z" fill="#FFDDA0"/>
<path d="M26.1405 45.3859C26.1405 45.3859 27.2931 45.3204 27.9965 45.4114C28.6998 45.5023 29.7979 45.8589 29.7979 45.8589C29.8285 45.8986 29.7739 46.3206 29.7433 46.2809C29.7433 46.2809 28.5906 46.3464 27.8873 46.2554C27.184 46.1644 26.0859 45.8079 26.0859 45.8079C26.0553 45.7682 26.1008 45.4165 26.1405 45.3859Z" fill="#FFDDA0"/>
<path d="M45.9456 69.186C45.9456 69.186 46.5355 69.0478 46.8872 69.0932C47.2389 69.1387 47.7742 69.4225 47.7742 69.4225L47.7197 69.8445C47.7197 69.8445 47.1297 69.9827 46.778 69.9373C46.4264 69.8918 45.891 69.608 45.891 69.608C45.8604 69.5683 45.9058 69.2166 45.9456 69.186Z" fill="#FFDDA0"/>
<path d="M32.7838 44.8864C32.7838 44.8864 32.9012 43.1496 33.0774 42.064C33.2535 40.9783 33.6522 39.2779 33.6522 39.2779C33.6613 39.2076 33.9733 39.2837 33.9336 39.3143C33.9336 39.3143 33.8162 41.0511 33.64 42.1367C33.4639 43.2224 33.0652 44.9228 33.0652 44.9228C33.0561 44.9931 32.8451 44.9658 32.7838 44.8864Z" fill="#FFDDA0"/>
<path d="M34.5902 44.1904C34.5902 44.1904 34.5223 43.6096 34.5769 43.1876C34.5918 42.7962 34.7349 42.2426 34.7349 42.2426L35.0253 42.2086C35.0253 42.2086 35.0775 42.3584 35.0899 42.5388C35.1329 42.7589 35.1363 43.0096 35.1487 43.19C35.0941 43.612 34.8807 44.1565 34.8807 44.1565C34.8319 44.2574 34.5902 44.1904 34.5902 44.1904Z" fill="#FFDDA0"/>
<path d="M35.8483 48.2862C35.8483 48.2862 35.8962 47.3628 35.969 46.8001C36.0112 46.1977 36.2304 45.3322 36.2304 45.3322C36.2701 45.3015 36.5208 45.2982 36.5514 45.3379C36.5514 45.3379 36.6442 46.2796 36.602 46.882C36.4895 47.4752 36.1603 48.3623 36.1603 48.3623C36.0899 48.3532 35.8483 48.2862 35.8483 48.2862Z" fill="#FFDDA0"/>
<path d="M37.1972 51.6786C37.1972 51.6786 37.2848 50.7246 37.3973 50.1313C37.5098 49.538 37.6984 48.6327 37.6984 48.6327C37.7381 48.6021 37.9888 48.5988 38.0194 48.6385C38.0194 48.6385 38.0228 48.8892 38.0567 49.1797C38.051 49.5007 38.0361 49.8921 37.9906 50.2438C37.8781 50.837 37.5091 51.7547 37.5091 51.7547C37.4388 51.7456 37.1972 51.6786 37.1972 51.6786Z" fill="#FFDDA0"/>
<path d="M38.4469 53.628C38.4469 53.628 38.4369 52.8759 38.5006 52.3835C38.6346 51.9003 38.906 51.1845 38.906 51.1845C38.906 51.1845 39.1873 51.2209 39.2179 51.2606C39.2179 51.2606 39.2279 52.0128 39.1336 52.4654C39.0393 52.918 38.8383 53.6429 38.8383 53.6429C38.7589 53.7041 38.4775 53.6677 38.4469 53.628Z" fill="#FFDDA0"/>
<path d="M7.40277 33.2371C7.40277 33.2371 -5.0252 48.3274 -17.4225 63.4575C-17.4225 63.4575 -17.3828 63.4268 -17.3431 63.3962L-17.3034 63.3656C-16.9642 63.2307 -16.6158 63.0255 -16.2369 62.8599C-14.7516 62.1582 -13.0769 61.3736 -11.4726 60.58C-5.57141 57.8034 1.39629 54.5212 7.14768 51.7968C10.0387 50.4545 12.6302 49.2164 14.6441 48.2969C15.6709 47.8219 16.5083 47.4296 17.2265 47.1292C17.5657 46.9943 17.8347 46.8503 18.0638 46.7369C18.1739 46.7154 18.2136 46.6848 18.2533 46.6542C10.0781 36.0502 7.9042 33.2304 7.9042 33.2304C7.26121 32.3964 7.73779 32.029 8.38078 32.863C8.38078 32.863 10.6772 35.8416 19.3911 46.9801C18.7829 47.259 17.2183 48.022 15.0364 49.1343C13.0531 50.0935 10.4616 51.3315 7.56148 52.7442C1.80099 55.5389 -5.13609 58.8609 -11.0373 61.6374C-15.114 63.5773 -19.6797 65.7042 -21.5132 66.6112C-17.6229 61.9656 -13.7326 57.32 -10.059 52.9681C-6.92909 49.2253 -3.97619 45.7457 -1.44773 42.7832C3.57857 36.8186 6.95591 32.8217 6.95591 32.8217C7.65836 32.0902 8.04398 32.4261 7.40277 33.2371Z" fill="#FFDDA0"/>
<path d="M10.8398 42.0483C10.8398 42.0483 1.97756 49.1974 -3.79025 53.7074C-9.58867 58.1777 -18.7878 64.8899 -18.7878 64.8899C-19.1055 65.1348 -19.4729 64.6583 -19.1552 64.4133C-19.1552 64.4133 -10.3235 57.2246 -4.5251 52.7542C1.27333 48.2839 10.4724 41.5718 10.4724 41.5718C10.8207 41.3665 11.1269 41.7637 10.8398 42.0483Z" fill="#FFDDA0"/>
<path d="M7.78754 32.7505C7.78754 32.7505 7.48914 36.7165 7.16166 39.2485C6.83419 41.7806 6.11378 45.692 6.11378 45.692C6.09558 45.8326 5.67358 45.7781 5.69177 45.6374C5.69177 45.6374 5.99018 41.6714 6.31766 39.1394C6.64513 36.6074 7.36554 32.696 7.36554 32.696C7.42345 32.5247 7.80573 32.6099 7.78754 32.7505Z" fill="#FFDDA0"/>
<path d="M4.58377 36.2335C4.58377 36.2335 4.34903 39.7071 4.06704 41.8875C3.74533 44.0984 3.12832 47.4869 3.12832 47.4869C3.11013 47.6276 2.6575 47.5333 2.70632 47.4323C2.70632 47.4323 2.94104 43.9587 3.22303 41.7783C3.54474 39.5673 4.16176 36.1789 4.16176 36.1789C4.21057 36.0779 4.56225 36.1234 4.58377 36.2335Z" fill="#FFDDA0"/>
<path d="M1.47542 40.0863C1.47542 40.0863 1.31346 42.9973 1.07695 44.826C0.840444 46.6547 0.256484 49.5111 0.256484 49.5111C0.207673 49.612 -0.214333 49.5575 -0.165521 49.4565C-0.165521 49.4565 -0.00356762 46.5455 0.232943 44.7169C0.469453 42.8882 1.05341 40.0318 1.05341 40.0318C1.06251 39.9614 1.48451 40.016 1.47542 40.0863Z" fill="#FFDDA0"/>
<path d="M-1.55027 44.1287C-1.55027 44.1287 -1.63035 46.4067 -1.852 47.8439C-2.04303 49.321 -2.5054 51.5137 -2.5054 51.5137C-2.5145 51.5841 -2.9365 51.5295 -2.92741 51.4592C-2.92741 51.4592 -2.84732 49.1812 -2.62567 47.7439C-2.43465 46.2669 -1.97227 44.0741 -1.97227 44.0741C-1.92346 43.9731 -1.57179 44.0186 -1.55027 44.1287Z" fill="#FFDDA0"/>
<path d="M9.55297 39.5578C9.55297 39.5578 9.61844 40.7104 9.52747 41.4138C9.43651 42.1171 9.07996 43.2152 9.07996 43.2152C9.04024 43.2458 8.61824 43.1912 8.65796 43.1606C8.65796 43.1606 8.59249 42.0079 8.68346 41.3046C8.77443 40.6013 9.13097 39.5032 9.13097 39.5032C9.17069 39.4726 9.52236 39.5181 9.55297 39.5578Z" fill="#FFDDA0"/>
<path d="M10.0126 46.232C10.0126 46.232 11.7494 46.3493 12.835 46.5255C13.9206 46.7017 15.6211 47.1004 15.6211 47.1004C15.6914 47.1095 15.6153 47.4214 15.5847 47.3817C15.5847 47.3817 13.8479 47.2643 12.7622 47.0882C11.6766 46.912 9.97617 46.5133 9.97617 46.5133C9.94555 46.4736 9.97284 46.2626 10.0126 46.232Z" fill="#FFDDA0"/>
<path d="M10.7483 48.0076C10.7483 48.0076 11.3292 47.9397 11.7512 47.9943C12.1425 48.0092 12.6961 48.1523 12.6961 48.1523L12.7301 48.4427C12.7301 48.4427 12.5803 48.4948 12.3999 48.5073C12.1798 48.5503 11.9291 48.5536 11.7487 48.5661C11.3267 48.5115 10.7822 48.2981 10.7822 48.2981C10.6813 48.2492 10.7086 48.0382 10.7483 48.0076Z" fill="#FFDDA0"/>
<path d="M6.65264 49.2657C6.65264 49.2657 7.57608 49.3136 8.13875 49.3864C8.74113 49.4285 9.60666 49.6477 9.60666 49.6477C9.63728 49.6874 9.64061 49.9381 9.6009 49.9688C9.6009 49.9688 8.65927 50.0615 8.05688 50.0194C7.46359 49.9069 6.57654 49.5776 6.57654 49.5776C6.58564 49.5073 6.65264 49.2657 6.65264 49.2657Z" fill="#FFDDA0"/>
<path d="M3.26018 50.6147C3.26018 50.6147 4.21424 50.7023 4.80753 50.8148C5.40082 50.9273 6.30606 51.1159 6.30606 51.1159C6.33668 51.1556 6.34001 51.4063 6.3003 51.4369C6.3003 51.4369 6.04958 51.4403 5.75915 51.4742C5.4381 51.4684 5.04671 51.4536 4.69504 51.4081C4.10175 51.2956 3.18408 50.9266 3.18408 50.9266C3.19318 50.8563 3.26018 50.6147 3.26018 50.6147Z" fill="#FFDDA0"/>
<path d="M1.27094 51.8949C1.27094 51.8949 2.02309 51.8849 2.51542 51.9486C2.99867 52.0826 3.71444 52.3539 3.71444 52.3539C3.71444 52.3539 3.67805 52.6353 3.63833 52.6659C3.63833 52.6659 2.88618 52.6759 2.43356 52.5816C1.98094 52.4873 1.25607 52.2863 1.25607 52.2863C1.23455 52.1762 1.27094 51.8949 1.27094 51.8949Z" fill="#FFDDA0"/>
<path d="M21.5428 20.9425C21.5428 20.9425 6.4525 8.51456 -8.67755 -3.88279C-8.67755 -3.88279 -8.64693 -3.84307 -8.61631 -3.80336L-8.58569 -3.76364C-8.45079 -3.4244 -8.24556 -3.07606 -8.08004 -2.6971C-7.37825 -1.21188 -6.59369 0.462817 -5.80004 2.06718C-3.0235 7.96834 0.258706 14.936 2.98311 20.6874C4.32546 23.5785 5.56352 26.1699 6.48298 28.1839C6.95801 29.2107 7.35029 30.048 7.65071 30.7663C7.78561 31.1055 7.9296 31.3744 8.04298 31.6036C8.0645 31.7137 8.09512 31.7534 8.12574 31.7931C18.7603 23.6576 21.6107 21.5234 21.6107 21.5234C22.4448 20.8804 22.8122 21.357 21.9782 22C21.9782 22 18.9995 24.2964 7.86105 33.0103C7.58215 32.4021 6.81912 30.8375 5.70686 28.6556C4.7477 26.6723 3.50963 24.0808 2.09695 21.1807C-0.697789 15.4202 -4.01971 8.48309 -6.79626 2.58193C-8.73611 -1.49476 -10.863 -6.06047 -11.77 -7.89403C-7.12443 -4.00372 -2.47883 -0.113403 1.87301 3.56014C5.61581 6.6901 9.09546 9.643 12.0579 12.1715C18.0226 17.1978 22.0194 20.5751 22.0194 20.5751C22.6897 21.1981 22.3538 21.5837 21.5428 20.9425Z" fill="#FFDDA0"/>
<path d="M12.7314 24.3796C12.7314 24.3796 5.58239 15.5173 1.07235 9.74949C-3.39799 3.95107 -10.1101 -5.248 -10.1101 -5.248C-10.3551 -5.56573 -9.87851 -5.93315 -9.63356 -5.61543C-9.63356 -5.61543 -2.44482 3.21622 2.02551 9.01465C6.49584 14.8131 13.208 24.0121 13.208 24.0121C13.4132 24.3605 13.0161 24.6667 12.7314 24.3796Z" fill="#FFDDA0"/>
<path d="M22.0295 21.3272C22.0295 21.3272 18.0635 21.0288 15.5314 20.7013C12.9994 20.3739 9.08801 19.6535 9.08801 19.6535C8.94734 19.6353 9.00192 19.2133 9.14259 19.2315C9.14259 19.2315 13.1086 19.5299 15.6406 19.8573C18.1726 20.1848 22.084 20.9052 22.084 20.9052C22.2553 20.9631 22.1701 21.3454 22.0295 21.3272Z" fill="#FFDDA0"/>
<path d="M18.5462 18.1236C18.5462 18.1236 15.0726 17.8889 12.8922 17.6069C10.6813 17.2852 7.29281 16.6681 7.29281 16.6681C7.15214 16.65 7.24644 16.1973 7.34739 16.2461C7.34739 16.2461 10.821 16.4809 13.0014 16.7629C15.2124 17.0846 18.6008 17.7016 18.6008 17.7016C18.7018 17.7504 18.6869 18.1418 18.5462 18.1236Z" fill="#FFDDA0"/>
<path d="M14.6934 15.0151C14.6934 15.0151 11.7824 14.8532 9.95375 14.6167C8.12507 14.3802 5.26866 13.7962 5.26866 13.7962C5.16771 13.7474 5.22229 13.3254 5.32324 13.3742C5.32324 13.3742 8.23422 13.5362 10.0629 13.7727C11.8916 14.0092 14.748 14.5931 14.748 14.5931C14.8489 14.6419 14.7637 15.0242 14.6934 15.0151Z" fill="#FFDDA0"/>
<path d="M10.6512 11.9895C10.6512 11.9895 8.37319 11.9094 6.9359 11.6878C5.45888 11.4967 3.26611 11.0344 3.26611 11.0344C3.19577 11.0253 3.25035 10.6033 3.32069 10.6124C3.32069 10.6124 5.59866 10.6924 7.03596 10.9141C8.51297 11.1051 10.7058 11.5675 10.7058 11.5675C10.8067 11.6163 10.7612 11.968 10.6512 11.9895Z" fill="#FFDDA0"/>
<path d="M7.47451 9.18305C7.47451 9.18305 5.47787 9.13935 4.21186 8.97561C2.94585 8.81187 1.00379 8.34617 1.00379 8.34617C0.933454 8.33707 0.988033 7.91507 1.05837 7.92416C1.05837 7.92416 3.05501 7.96786 4.32102 8.1316C5.58703 8.29534 7.52909 8.76104 7.52909 8.76104C7.55971 8.80076 7.54485 9.19215 7.47451 9.18305Z" fill="#FFDDA0"/>
<path d="M4.25787 6.40717C4.25787 6.40717 2.61291 6.40895 1.5579 6.27251C0.502886 6.13606 -1.08751 5.71583 -1.08751 5.71583C-1.15784 5.70674 -1.10326 5.28474 -1.03293 5.29383C-1.03293 5.29383 0.612043 5.29205 1.66705 5.4285C2.72206 5.56495 4.31245 5.98517 4.31245 5.98517C4.38279 5.99427 4.29759 6.37655 4.25787 6.40717Z" fill="#FFDDA0"/>
<path d="M1.10611 3.96148C1.10611 3.96148 -0.187192 4.00874 -1.0312 3.89959C-1.87521 3.79043 -3.11393 3.41569 -3.11393 3.41569C-3.14455 3.37597 -3.08997 2.95397 -3.05935 2.99368C-3.05935 2.99368 -1.76605 2.94642 -0.922039 3.05558C-0.0780317 3.16474 1.16069 3.53948 1.16069 3.53948C1.23102 3.54857 1.17644 3.97058 1.10611 3.96148Z" fill="#FFDDA0"/>
<path d="M15.2219 23.0927C15.2219 23.0927 14.0693 23.1581 13.366 23.0672C12.6626 22.9762 11.5646 22.6196 11.5646 22.6196C11.5339 22.5799 11.5885 22.1579 11.6191 22.1976C11.6191 22.1976 12.7718 22.1322 13.4751 22.2231C14.1785 22.3141 15.2765 22.6707 15.2765 22.6707C15.3071 22.7104 15.2616 23.062 15.2219 23.0927Z" fill="#FFDDA0"/>
<path d="M8.54801 23.5525C8.54801 23.5525 8.43065 25.2893 8.25448 26.3749C8.07832 27.4605 7.67962 29.161 7.67962 29.161C7.67052 29.2313 7.35857 29.1552 7.39828 29.1246C7.39828 29.1246 7.51565 27.3878 7.69181 26.3021C7.86797 25.2165 8.26668 23.5161 8.26668 23.5161C8.30639 23.4855 8.51739 23.5127 8.54801 23.5525Z" fill="#FFDDA0"/>
<path d="M6.77209 24.2882C6.77209 24.2882 6.83999 24.8691 6.78541 25.2911C6.77055 25.6824 6.62744 26.236 6.62744 26.236L6.33701 26.27C6.33701 26.27 6.28486 26.1202 6.27244 25.9398C6.22939 25.7197 6.22606 25.469 6.21364 25.2886C6.26822 24.8666 6.48166 24.3221 6.48166 24.3221C6.53047 24.2212 6.74147 24.2485 6.77209 24.2882Z" fill="#FFDDA0"/>
<path d="M5.51418 20.1924C5.51418 20.1924 5.46626 21.1158 5.39349 21.6785C5.35133 22.2809 5.13213 23.1464 5.13213 23.1464C5.09241 23.177 4.84169 23.1803 4.81107 23.1406C4.81107 23.1406 4.71833 22.199 4.76048 21.5966C4.87297 21.0033 5.20222 20.1163 5.20222 20.1163C5.27256 20.1254 5.51418 20.1924 5.51418 20.1924Z" fill="#FFDDA0"/>
<path d="M4.16506 16.8C4.16506 16.8 4.07742 17.754 3.96493 18.3473C3.85245 18.9406 3.66386 19.8458 3.66386 19.8458C3.62414 19.8765 3.37342 19.8798 3.3428 19.8401C3.3428 19.8401 3.33947 19.5894 3.30553 19.2989C3.31129 18.9779 3.32616 18.5865 3.37164 18.2348C3.48413 17.6415 3.8531 16.7239 3.8531 16.7239C3.92344 16.733 4.16506 16.8 4.16506 16.8Z" fill="#FFDDA0"/>
<path d="M2.88503 14.8109C2.88503 14.8109 2.89502 15.563 2.83134 16.0554C2.69733 16.5386 2.42598 17.2544 2.42598 17.2544C2.42598 17.2544 2.14464 17.218 2.11403 17.1783C2.11403 17.1783 2.10404 16.4261 2.19833 15.9735C2.29263 15.5209 2.49364 14.796 2.49364 14.796C2.60369 14.7745 2.88503 14.8109 2.88503 14.8109Z" fill="#FFDDA0"/>
<path d="M35.9456 33.7106C35.9456 33.7106 48.3736 18.6203 60.771 3.49025C60.771 3.49025 60.7312 3.52086 60.6915 3.55148L60.6518 3.5821C60.3126 3.717 59.9642 3.92224 59.5853 4.08776C58.1 4.78955 56.4253 5.5741 54.821 6.36775C48.9198 9.1443 41.9521 12.4265 36.2007 15.1509C33.3097 16.4933 30.7182 17.7313 28.7043 18.6508C27.6775 19.1258 26.8401 19.5181 26.1219 19.8185C25.7827 19.9534 25.5138 20.0974 25.2846 20.2108C25.1745 20.2323 25.1348 20.2629 25.0951 20.2935C33.2306 30.9281 35.3648 33.7785 35.3648 33.7785C36.0078 34.6125 35.5312 34.98 34.8882 34.146C34.8882 34.146 32.5918 31.1673 23.8779 20.0288C24.486 19.75 26.0507 18.9869 28.2326 17.8747C30.2159 16.9155 32.8074 15.6774 35.7075 14.2647C41.468 11.47 48.4051 8.14809 54.3062 5.37154C58.3829 3.43168 62.9486 1.30478 64.7822 0.397757C60.8919 5.04336 57.0016 9.68896 53.328 14.0408C50.1981 17.7836 47.2452 21.2633 44.7167 24.2257C39.6904 30.1904 36.3131 34.1872 36.3131 34.1872C35.6503 34.8881 35.3044 34.5216 35.9456 33.7106Z" fill="#FFDDA0"/>
<path d="M30.059 44.391C24.1415 48.9532 15.631 47.8525 11.0689 41.935C6.50667 36.0174 7.60736 27.507 13.5249 22.9448C19.4425 18.3826 27.9529 19.4833 32.5151 25.4009C37.0376 31.349 35.9766 39.8288 30.059 44.391Z" fill="#F7EDD9"/>
<path d="M30.3215 43.7456C30.3215 43.7456 30.4009 43.6843 30.5598 43.5619C30.7187 43.4394 30.9172 43.2863 31.134 42.9925C31.2225 42.861 31.3814 42.7385 31.5494 42.5457C31.6288 42.4844 31.6776 42.3835 31.7967 42.2916C31.8456 42.1907 31.9647 42.0988 32.0135 41.9979C32.1815 41.8051 32.3188 41.5725 32.5265 41.3491C32.7035 41.086 32.8409 40.8534 33.0179 40.5903C33.6955 39.498 34.3086 38.0756 34.6369 36.3661C34.9653 34.6565 34.9999 32.7302 34.5422 30.7402C33.697 26.7694 30.4151 22.8409 26.0932 21.4238C24.9951 21.0672 23.9186 20.8207 22.7841 20.7455C22.2215 20.6728 21.6803 20.71 21.1086 20.7076C20.8578 20.7109 20.5674 20.7449 20.277 20.7788C19.9865 20.8128 19.7358 20.8161 19.476 20.8898C17.3147 21.2896 15.4109 22.1875 13.862 23.3816C12.3131 24.5758 10.9206 26.2192 10.0238 28.177C9.88645 28.4095 9.81944 28.6512 9.71272 28.9234C9.606 29.1956 9.46866 29.4282 9.43228 29.7095C9.28917 30.2631 9.11545 30.7769 9.04267 31.3396C8.79618 32.4161 8.7913 33.5597 8.85676 34.7123C9.12768 39.2525 12.0919 43.4259 15.7171 45.2535C17.5252 46.2024 19.4275 46.6988 21.1337 46.7764C22.8706 46.8938 24.4112 46.5925 25.6309 46.2854C25.9304 46.1811 26.2606 46.1165 26.4898 46.0032C26.7587 45.8592 27.0185 45.7855 27.2477 45.6721C27.3577 45.6506 27.4769 45.5587 27.5869 45.5372C27.6664 45.476 27.8161 45.4238 27.8955 45.3626C28.085 45.2798 28.2439 45.1574 28.4334 45.0746C28.742 44.9 28.9712 44.7866 29.1301 44.6641C29.2889 44.5417 29.3683 44.4804 29.3683 44.4804C30.0741 43.9996 30.4109 44.4365 29.6961 44.9876C29.6961 44.9876 29.6166 45.0489 29.4578 45.1713C29.2989 45.2938 29.0606 45.4775 28.752 45.6521C28.5625 45.7349 28.4036 45.8574 28.2142 45.9401C28.1347 46.0014 27.985 46.0535 27.9055 46.1148C27.7955 46.1363 27.6763 46.2281 27.5663 46.2497C27.3371 46.363 27.0376 46.4673 26.7687 46.6113C26.4997 46.7553 26.1696 46.8199 25.8701 46.9242C24.6016 47.3322 22.9509 47.655 21.104 47.5592C19.2878 47.5031 17.2754 47.0283 15.296 46.0214C13.3473 45.0543 11.5814 43.5029 10.1911 41.5354C9.82371 41.0588 9.53571 40.521 9.27834 40.0228C9.13434 39.7539 9.03006 39.4544 8.88607 39.1855C8.78178 38.886 8.63779 38.6171 8.56412 38.3572C8.38618 37.7979 8.17762 37.1988 8.03938 36.6089C7.90116 36.0189 7.80264 35.3983 7.77446 34.7869C7.67838 33.5945 7.73207 32.35 7.95705 31.1634C8.03892 30.5304 8.21264 30.0166 8.36484 29.3927C8.44094 29.0807 8.57828 28.8482 8.65439 28.5362C8.76111 28.264 8.83721 27.952 8.97455 27.7195C9.96898 25.5598 11.45 23.7848 13.1577 22.4682C14.8655 21.1516 16.9895 20.2106 19.3005 19.7587C19.5603 19.685 19.8814 19.6908 20.1718 19.6568C20.4622 19.6229 20.7527 19.5889 21.0737 19.5947C21.6852 19.5665 22.257 19.5689 22.89 19.6508C24.0948 19.7351 25.2722 20.0304 26.4406 20.3961C26.9851 20.6095 27.5999 20.832 28.1353 21.1158C28.7104 21.369 29.1663 21.714 29.6926 22.0681C29.9558 22.2451 30.1792 22.4528 30.4117 22.5902C30.6352 22.7978 30.8983 22.9749 31.1217 23.1826C31.5686 23.5979 32.0154 24.0132 32.3522 24.4501C33.8708 26.2555 34.9524 28.3977 35.3919 30.5283C35.8712 32.6284 35.7787 34.726 35.4015 36.5364C35.0243 38.3469 34.3012 39.7909 33.5748 40.9841C33.3978 41.2473 33.2513 41.5501 33.0437 41.7736C32.836 41.997 32.6987 42.2295 32.491 42.4529C32.4025 42.5845 32.323 42.6457 32.2742 42.7467C32.1948 42.8079 32.1063 42.9395 32.0268 43.0007C31.8986 43.1629 31.7 43.316 31.6115 43.4476C31.3641 43.7016 31.1258 43.8854 30.9669 44.0078C30.8081 44.1303 30.7286 44.1915 30.7286 44.1915C30.0138 44.7427 29.7473 44.3149 30.3215 43.7456Z" fill="#FFDDA0"/>
<path d="M26.6017 39.3314C26.6017 39.3314 26.6414 39.3008 26.7208 39.2395C26.8002 39.1783 26.9194 39.0865 27.0476 38.9243C27.3347 38.6396 27.7104 38.2234 28.0827 37.5564C28.4459 36.9598 28.8057 36.1125 28.9943 35.2072C29.1523 34.2623 29.1878 33.1584 28.9329 32.0886C28.4321 29.8785 26.638 27.7157 24.2309 26.9753C23.0319 26.5699 21.7874 26.5162 20.6166 26.7224C19.4458 26.9285 18.3792 27.4341 17.5055 28.1077C16.6317 28.7814 15.8714 29.6842 15.3742 30.764C14.8769 31.8439 14.6429 33.1008 14.6992 34.3238C14.8426 36.8094 16.4381 39.1253 18.448 40.1719C19.4485 40.7303 20.4853 41.0075 21.4484 41.0248C22.4025 41.1124 23.2829 40.9402 23.9523 40.7408C24.6523 40.581 25.1901 40.293 25.5384 40.0878C25.7279 40.005 25.8471 39.9132 25.9265 39.8519C26.0059 39.7907 26.0456 39.7601 26.0456 39.7601C26.4337 39.5242 26.8102 39.9305 26.3734 40.2673C26.3734 40.2673 26.3336 40.2979 26.2542 40.3591C26.1748 40.4204 26.0159 40.5428 25.8264 40.6256C25.4384 40.8614 24.9006 41.1494 24.1517 41.4102C23.4029 41.6709 22.4522 41.8339 21.4187 41.8075C20.3546 41.7414 19.168 41.5164 18.0269 40.9398C15.7356 39.8568 13.8157 37.2845 13.6169 34.3983C13.4778 32.9859 13.7392 31.518 14.2943 30.2668C14.8494 29.0157 15.738 27.9507 16.7309 27.1852C17.7238 26.4197 18.9798 25.8313 20.331 25.6128C21.6822 25.3942 23.1683 25.5149 24.4989 26.0088C27.2395 26.9353 29.1991 29.4771 29.7032 31.9379C29.9706 33.1882 29.926 34.3623 29.6795 35.4388C29.4727 36.4848 29.0425 37.323 28.5999 37.9809C28.1878 38.6784 27.7419 39.0856 27.4151 39.4008C27.2868 39.563 27.128 39.6855 27.0485 39.7468C26.9691 39.808 26.9294 39.8386 26.9294 39.8386C26.5413 40.0745 26.2748 39.6467 26.6017 39.3314Z" fill="#FFDDA0"/>
<path d="M-13.9241 64.053C-13.9241 64.053 -13.8628 64.1324 -13.771 64.2515C-13.6791 64.3707 -13.4863 64.5386 -13.272 64.8166C-12.8342 65.3023 -12.1821 66.066 -11.2884 66.8967C-9.47947 68.6681 -6.75862 71.1296 -2.81481 73.5347C1.05867 75.9307 6.16421 78.2 12.189 79.444C15.2167 80.0859 18.4611 80.434 21.8214 80.4395C22.6745 80.4783 23.5061 80.4071 24.3683 80.3756C25.2305 80.3441 26.1018 80.2423 26.9731 80.1404C27.8444 80.0386 28.7157 79.9367 29.5961 79.7646C30.4765 79.5924 31.3875 79.4599 32.2372 79.248C35.777 78.4186 39.3316 77.1979 42.739 75.4575C46.1463 73.7171 49.4278 71.5671 52.4122 68.9497C58.3413 63.7454 63.1648 56.8606 65.8013 49.1925L66.0726 48.4767L66.2736 47.7518L66.7154 46.2715L67.0868 44.782L67.2878 44.0572L67.4185 43.3232C67.8536 41.3415 68.0777 39.3324 68.262 37.3539C68.5298 33.3482 68.3665 29.3583 67.6836 25.5157C66.3574 17.7998 63.0048 10.823 58.6876 5.22313C54.3704 -0.376722 48.4761 -5.39393 41.3515 -8.63947C37.8487 -10.3082 33.9919 -11.4506 30.0499 -12.2107C28.0896 -12.5357 26.0896 -12.8302 24.0624 -12.9136L23.3193 -12.9739L22.5672 -12.9639L21.0629 -12.944L19.5189 -12.8934L18.7667 -12.8834L18.0055 -12.8031C9.91884 -12.2042 2.04256 -9.36129 -4.53863 -4.92069C-11.1198 -0.480089 -16.3265 5.49699 -19.6615 11.9307C-20.1223 12.7292 -20.4425 13.5459 -20.833 14.3535C-21.2234 15.1612 -21.5436 15.9779 -21.8638 16.7946C-22.1533 17.651 -22.5041 18.428 -22.7539 19.2538C-23.0037 20.0797 -23.2842 20.8658 -23.4637 21.7007C-24.3529 24.9824 -24.802 28.178 -24.9515 31.2694C-25.2812 37.4124 -24.3855 42.9273 -23.0538 47.2829C-21.7221 51.6385 -20.0429 54.9664 -18.79 57.1665C-18.1834 58.2818 -17.6413 59.067 -17.283 59.6139C-17.1084 59.9226 -16.9553 60.1212 -16.8635 60.2403C-16.7716 60.3594 -16.7104 60.4389 -16.7104 60.4389C-14.9221 62.9227 -15.4202 63.1801 -17.2176 60.7666C-17.2176 60.7666 -17.2788 60.6872 -17.3707 60.568C-17.4625 60.4489 -17.5759 60.2197 -17.7902 59.9417C-18.1486 59.3947 -18.7212 58.5698 -19.3278 57.4545C-20.5807 55.2544 -22.3302 51.9174 -23.7232 47.4824C-25.1161 43.0473 -26.0425 37.4927 -25.7649 31.2C-25.646 28.0689 -25.1481 24.7723 -24.2895 21.4508C-24.11 20.6159 -23.7898 19.7992 -23.5706 18.9337C-23.3208 18.1079 -22.9609 17.2605 -22.7111 16.4347C-22.3512 15.5874 -22.0311 14.7707 -21.6712 13.9233C-21.2807 13.1157 -20.9208 12.2684 -20.46 11.4698C-18.7483 8.18721 -16.6145 4.95916 -14.0248 2.07613C-11.4657 -0.846622 -8.47223 -3.53441 -5.1022 -5.81595C1.56752 -10.3881 9.60266 -13.3535 17.8697 -13.9648L18.6309 -14.0451L19.4228 -14.0857L20.9668 -14.1363L22.5017 -14.1166L23.2845 -14.0868L24.0673 -14.0571C26.1342 -14.0043 28.1648 -13.6702 30.1648 -13.3758C34.1772 -12.6065 38.1043 -11.455 41.708 -9.73752C49.0039 -6.43407 55.0604 -1.28863 59.4695 4.43037C63.8786 10.1494 67.2742 17.3463 68.6525 25.2119C69.3967 29.134 69.5112 33.2249 69.2343 37.3009C69.0408 39.3497 68.777 41.3894 68.3419 43.3712L68.1715 44.1357L68.0011 44.9003L67.6297 46.3897L67.188 47.8701L66.9472 48.6256L66.6759 49.3413C63.9815 57.1808 59.0695 64.1971 52.9509 69.4842C49.9268 72.1322 46.5658 74.3435 43.0485 76.1054C39.5617 77.907 35.9368 79.1187 32.3267 79.9389C31.4372 80.1814 30.5262 80.3139 29.6458 80.4861C28.7654 80.6583 27.8635 80.7204 26.9524 80.8529C26.0505 80.915 25.1792 81.0168 24.317 81.0483C23.4548 81.0798 22.5529 81.142 21.6998 81.1032C18.2692 81.0885 14.9544 80.7313 11.8961 80.0497C5.77039 78.7569 0.603606 76.4082 -3.33111 73.9327C-7.26582 71.4573 -10.0173 68.9561 -11.8569 67.145C-12.7812 66.2746 -13.4333 65.5109 -13.871 65.0252C-14.0854 64.7472 -14.2782 64.5792 -14.37 64.4601C-14.4619 64.341 -14.5231 64.2615 -14.5231 64.2615C-16.2775 62.0681 -15.8497 61.8016 -13.9241 64.053Z" fill="#FFDDA0"/>
<path d="M28.7723 41.9005C28.7723 41.9005 28.8517 41.8392 28.9708 41.7474C29.09 41.6555 29.2886 41.5024 29.4565 41.3096C29.8322 40.8934 30.4155 40.2537 30.9648 39.3236C31.4745 38.4241 32.0205 37.2433 32.3034 35.8854C32.5862 34.5276 32.6151 32.9223 32.1822 31.2931C31.4571 28.0529 28.8272 24.8881 25.3312 23.7208C24.4747 23.4313 23.5695 23.2427 22.646 23.1948C21.7623 23.1162 20.8604 23.1784 19.98 23.3505C18.2589 23.6643 16.6637 24.3876 15.3928 25.3674C14.1219 26.3472 13.0165 27.7059 12.2753 29.2906C11.9245 30.0676 11.5952 30.9546 11.4463 31.8292C11.2578 32.7345 11.2496 33.6273 11.272 34.5598C11.5114 38.2378 13.8939 41.6567 16.8521 43.1119C18.3267 43.8747 19.8467 44.2859 21.2625 44.3974C22.6783 44.509 23.9592 44.2814 24.9281 43.9776C25.9276 43.7136 26.6947 43.3122 27.2325 43.0242C27.5014 42.8803 27.6602 42.7578 27.7794 42.6659C27.8985 42.5741 27.978 42.5128 27.978 42.5128C28.5646 42.1239 28.9014 42.5607 28.3057 43.02C28.3057 43.02 28.2262 43.0813 28.1071 43.1731C27.988 43.265 27.7894 43.4181 27.5205 43.5621C26.9826 43.8501 26.2065 44.3218 25.1276 44.647C24.0486 44.9723 22.728 45.2306 21.2328 45.1802C19.7376 45.1299 18.0372 44.7312 16.4616 43.9196C14.8464 43.1386 13.3742 41.804 12.2595 40.1939C11.1051 38.6144 10.3967 36.6277 10.2294 34.6038C10.1457 33.5918 10.1721 32.5583 10.3698 31.5827C10.4972 30.5981 10.8355 29.6407 11.2351 28.7627C12.074 26.9762 13.2679 25.4859 14.6977 24.3836C16.0877 23.3119 17.8724 22.5059 19.8136 22.1491C20.7643 21.986 21.7763 21.9024 22.761 22.0297C23.7547 22.0867 24.7609 22.3241 25.7183 22.6625C27.6331 23.3392 29.3435 24.49 30.608 26.048C31.8816 27.5357 32.7273 29.2898 33.142 31.0597C33.5261 32.7899 33.4791 34.5358 33.1474 35.9946C32.8157 37.4534 32.2606 38.7046 31.6409 39.6256C31.0518 40.5863 30.4288 41.2566 29.9828 41.6637C29.7751 41.8871 29.5766 42.0402 29.4574 42.1321C29.3383 42.2239 29.2588 42.2852 29.2588 42.2852C28.5531 42.766 28.2866 42.3382 28.7723 41.9005Z" fill="#FFDDA0"/>
<path d="M32.4382 24.8903C32.4382 24.8903 41.3005 17.7413 47.0683 13.2313C52.8667 8.76093 62.0658 2.04877 62.0658 2.04877C62.3835 1.80382 62.7509 2.28041 62.4332 2.52536C62.4332 2.52536 53.6016 9.71409 47.8031 14.1844C42.0047 18.6548 32.8056 25.3669 32.8056 25.3669C32.497 25.5415 32.1908 25.1444 32.4382 24.8903Z" fill="#FFDDA0"/>
<path d="M35.5213 34.2279C35.5213 34.2279 35.8197 30.2619 36.1472 27.7298C36.4747 25.1978 37.1951 21.2864 37.1951 21.2864C37.2133 21.1457 37.6353 21.2003 37.6171 21.341C37.6171 21.341 37.3187 25.307 36.9912 27.839C36.6637 30.371 35.9433 34.2824 35.9433 34.2824C35.8945 34.3834 35.5428 34.3379 35.5213 34.2279Z" fill="#FFDDA0"/>
<path d="M38.7338 30.6745C38.7338 30.6745 38.9686 27.2009 39.2506 25.0205C39.5723 22.8095 40.1893 19.4211 40.1893 19.4211C40.2075 19.2804 40.6601 19.3747 40.6113 19.4757C40.6113 19.4757 40.3766 22.9493 40.0946 25.1297C39.7729 27.3406 39.1558 30.7291 39.1558 30.7291C39.107 30.83 38.7156 30.8152 38.7338 30.6745Z" fill="#FFDDA0"/>
<path d="M41.8423 26.8217C41.8423 26.8217 42.0043 23.9107 42.2408 22.082C42.4773 20.2533 43.0613 17.3969 43.0613 17.3969C43.1101 17.296 43.5321 17.3505 43.4833 17.4515C43.4833 17.4515 43.3213 20.3625 43.0848 22.1912C42.8483 24.0198 42.2644 26.8762 42.2644 26.8762C42.2155 26.9772 41.8639 26.9317 41.8423 26.8217Z" fill="#FFDDA0"/>
<path d="M44.8587 22.8497C44.8587 22.8497 44.9387 20.5717 45.1604 19.1344C45.3514 17.6574 45.8138 15.4646 45.8138 15.4646C45.8229 15.3943 46.2449 15.4488 46.2358 15.5192C46.2358 15.5192 46.1557 17.7971 45.9341 19.2344C45.743 20.7115 45.2807 22.9042 45.2807 22.9042C45.2409 22.9348 44.8893 22.8894 44.8587 22.8497Z" fill="#FFDDA0"/>
<path d="M47.6745 19.6026C47.6745 19.6026 47.7182 17.6059 47.882 16.3399C48.0457 15.0739 48.5114 13.1318 48.5114 13.1318C48.5205 13.0615 48.9425 13.1161 48.9334 13.1864C48.9334 13.1864 48.8897 15.1831 48.726 16.4491C48.5622 17.7151 48.0965 19.6571 48.0965 19.6571C48.0477 19.7581 47.6654 19.6729 47.6745 19.6026Z" fill="#FFDDA0"/>
<path d="M50.4505 16.3861C50.4505 16.3861 50.4487 14.7411 50.5851 13.6861C50.7216 12.6311 51.1418 11.0407 51.1418 11.0407C51.1509 10.9703 51.5729 11.0249 51.5638 11.0953C51.5638 11.0953 51.5656 12.7402 51.4291 13.7952C51.2927 14.8502 50.8725 16.4406 50.8725 16.4406C50.8634 16.511 50.5117 16.4655 50.4505 16.3861Z" fill="#FFDDA0"/>
<path d="M52.887 13.3044C52.887 13.3044 52.8397 12.0111 52.9489 11.1671C53.0581 10.3231 53.4328 9.0844 53.4328 9.0844C53.4725 9.05378 53.8945 9.10836 53.8548 9.13898C53.8548 9.13898 53.9021 10.4323 53.7929 11.2763C53.6838 12.1203 53.309 13.359 53.309 13.359C53.309 13.359 52.9176 13.3442 52.887 13.3044Z" fill="#FFDDA0"/>
<path d="M55.0273 10.5778C55.0273 10.5778 54.9346 9.63618 55.0073 9.07351C55.0801 8.51084 55.4094 7.62379 55.4094 7.62379C55.4491 7.59317 55.8711 7.64775 55.8314 7.67837C55.8314 7.67837 55.9241 8.62 55.8513 9.18267C55.7786 9.74534 55.4493 10.6324 55.4493 10.6324C55.4096 10.663 55.0579 10.6175 55.0273 10.5778Z" fill="#FFDDA0"/>
<path d="M33.7955 27.39C33.7955 27.39 33.73 26.2373 33.821 25.534C33.9119 24.8306 34.2685 23.7326 34.2685 23.7326C34.3082 23.702 34.7302 23.7565 34.6905 23.7872C34.6905 23.7872 34.756 24.9398 34.665 25.6431C34.574 26.3465 34.2175 27.4445 34.2175 27.4445C34.1778 27.4752 33.8261 27.4297 33.7955 27.39Z" fill="#FFDDA0"/>
<path d="M57.5252 7.57566C57.5252 7.57566 57.387 6.9857 57.4325 6.63403C57.4779 6.28236 57.7617 5.74697 57.7617 5.74697L58.1837 5.80155C58.1837 5.80155 58.3219 6.39151 58.2765 6.74318C58.231 7.09485 57.9472 7.63024 57.9472 7.63024C57.9472 7.63024 57.5955 7.58475 57.5252 7.57566Z" fill="#FFDDA0"/>
<path d="M14.9928 34.5405C14.9928 34.5405 15.0996 34.2683 15.2551 33.8951C15.4106 33.5219 15.5446 33.0387 15.7002 32.6655C15.8557 32.2923 16.0907 31.8578 16.3165 31.4937C16.5424 31.1296 16.7194 30.8665 16.7194 30.8665C16.7592 30.8359 16.9917 30.9732 16.9826 31.0436C16.9826 31.0436 16.8759 31.3158 16.7203 31.689C16.5648 32.0622 16.4002 32.5057 16.2446 32.8789C16.0891 33.2521 15.8541 33.6865 15.6283 34.0506C15.4024 34.4147 15.2254 34.6779 15.2254 34.6779C15.1856 34.7085 14.9531 34.5711 14.9928 34.5405Z" fill="#FFDDA0"/>
<path d="M15.6063 36.1573C15.6063 36.1573 15.7039 35.9554 15.8107 35.6832C15.9174 35.411 16.0332 35.0684 16.1399 34.7961C16.3534 34.2517 16.7438 33.444 16.7438 33.444C16.7836 33.4134 17.0252 33.4804 17.0558 33.5201C17.0558 33.5201 17.0285 33.7311 16.983 34.0828C16.9466 34.3642 16.8217 34.7771 16.715 35.0493C16.5686 35.3522 16.3824 35.6856 16.2054 35.9488C16.0283 36.2119 15.8604 36.4047 15.8604 36.4047C15.7991 36.3253 15.5666 36.188 15.6063 36.1573Z" fill="#FFDDA0"/>
<path d="M16.5166 38.2416C16.5166 38.2416 16.553 37.9603 16.6382 37.578C16.6927 37.156 16.8574 36.7124 16.9732 36.3699C17.1287 35.9967 17.3637 35.5623 17.5498 35.2288C17.736 34.8953 17.913 34.6322 17.913 34.6322C17.9528 34.6015 18.1853 34.7389 18.1456 34.7695C18.1456 34.7695 17.7187 35.8585 17.4871 36.5436C17.3712 36.8862 17.1363 37.3206 17.0205 37.6632C16.9046 38.0057 16.7979 38.278 16.7979 38.278C16.7582 38.3086 16.4769 38.2722 16.5166 38.2416Z" fill="#FFDDA0"/>
<path d="M17.551 39.0905C17.551 39.0905 17.6022 38.4178 17.7271 38.0049C17.8521 37.5919 18.1846 36.9556 18.1846 36.9556C18.1846 36.9556 18.466 36.992 18.4966 37.0317C18.4966 37.0317 18.4453 37.7044 18.3204 38.1173C18.1955 38.5302 17.8629 39.1666 17.8629 39.1666C17.8232 39.1972 17.5816 39.1302 17.551 39.0905Z" fill="#FFDDA0"/>
<path d="M19.1207 40.2231C19.1207 40.2231 19.2605 39.4188 19.3639 38.8959C19.4673 38.3729 19.8181 37.5959 19.8181 37.5959C19.8578 37.5653 20.0994 37.6323 20.13 37.672C20.13 37.672 20.0606 38.4854 19.9572 39.0084C19.8902 39.25 19.7744 39.5926 19.6676 39.8648C19.5303 40.0973 19.4327 40.2992 19.4327 40.2992C19.3533 40.3605 19.081 40.2537 19.1207 40.2231Z" fill="#FFDDA0"/>
<path d="M21.4691 40.3123C21.4691 40.3123 21.5021 39.7803 21.5782 39.4683C21.5964 39.3277 21.6941 39.1258 21.7123 38.9851C21.7702 38.8138 21.7884 38.6731 21.7884 38.6731L22.0788 38.6392C22.0788 38.6392 22.1309 38.789 22.1434 38.9693C22.1864 39.1894 22.1591 39.4004 22.1318 39.6114C22.0466 39.9937 21.7413 40.4191 21.7413 40.4191L21.4691 40.3123Z" fill="#FFDDA0"/>
<path d="M33.2654 20.7067C33.2654 20.7067 31.5286 20.5893 30.4429 20.4131C29.3573 20.237 27.6569 19.8383 27.6569 19.8383C27.5865 19.8292 27.6626 19.5172 27.6932 19.5569C27.6932 19.5569 29.4301 19.6743 30.5157 19.8505C31.6013 20.0266 33.3018 20.4253 33.3018 20.4253C33.3721 20.4344 33.3357 20.7157 33.2654 20.7067Z" fill="#FFDDA0"/>
<path d="M32.6002 18.9401C32.6002 18.9401 32.0193 19.008 31.5973 18.9534C31.2059 18.9386 30.6523 18.7955 30.6523 18.7955L30.6184 18.505C30.6184 18.505 30.7681 18.4529 30.9485 18.4405C31.1686 18.3974 31.4193 18.3941 31.5997 18.3817C32.0217 18.4362 32.5662 18.6497 32.5662 18.6497C32.6365 18.6588 32.6002 18.9401 32.6002 18.9401Z" fill="#FFDDA0"/>
<path d="M36.6254 17.6729C36.6254 17.6729 35.7019 17.625 35.1393 17.5523C34.5369 17.5101 33.6714 17.2909 33.6714 17.2909C33.6407 17.2512 33.6374 17.0005 33.6771 16.9698C33.6771 16.9698 34.6188 16.8771 35.2211 16.9192C35.8144 17.0317 36.7015 17.361 36.7015 17.361C36.7321 17.4007 36.6957 17.682 36.6254 17.6729Z" fill="#FFDDA0"/>
<path d="M40.0576 16.2933C40.0576 16.2933 39.1035 16.2057 38.5102 16.0932C37.9169 15.9807 37.0117 15.7921 37.0117 15.7921C36.9811 15.7524 36.9777 15.5017 37.0175 15.4711C37.0175 15.4711 37.2682 15.4677 37.5586 15.4338C37.8797 15.4396 38.271 15.4544 38.6227 15.4999C39.216 15.6124 40.1337 15.9814 40.1337 15.9814C40.1246 16.0517 40.0882 16.333 40.0576 16.2933Z" fill="#FFDDA0"/>
<path d="M42.0069 15.0437C42.0069 15.0437 41.2547 15.0537 40.7624 14.9901C40.2791 14.856 39.5634 14.5847 39.5634 14.5847C39.5634 14.5847 39.5998 14.3034 39.6395 14.2727C39.6395 14.2727 40.3916 14.2628 40.8442 14.3571C41.2969 14.4513 42.0217 14.6524 42.0217 14.6524C42.1136 14.7715 42.0466 15.0131 42.0069 15.0437Z" fill="#FFDDA0"/>
<path d="M27.1809 17.9889C27.1809 17.9889 26.6386 14.1645 25.939 9.0683C25.3255 4.41228 24.5365 -1.37484 23.9048 -5.89019C22.5365 -1.66926 20.8605 3.54877 19.5717 7.70846C18.0297 12.4432 16.893 15.979 16.893 15.979C16.7193 16.4929 16.3461 16.3374 16.4801 15.8541C16.4801 15.8541 17.5464 12.3092 18.9478 7.55626C19.6484 5.17977 20.4955 2.50042 21.2723 -0.188026C22.3113 -3.5219 23.3197 -6.89549 24.2429 -9.8868C24.2462 -9.63608 24.363 -9.15617 24.4093 -8.68535C24.7488 -5.78103 25.1835 -2.50684 25.609 0.837678C25.9576 3.67167 26.2665 6.53628 26.5811 9.07983C27.1706 14.1976 27.6426 18.0129 27.6426 18.0129C27.6186 18.4746 27.2578 18.4995 27.1809 17.9889Z" fill="#FFDDA0"/>
<path d="M22.2353 19.4589C22.2353 19.4589 22.4862 11.1604 22.8168 5.83983C23.1473 0.5193 23.7896 -7.76435 23.7896 -7.76435C23.826 -8.04569 24.248 -7.99111 24.2513 -7.74039C24.2513 -7.74039 24.0004 0.558125 23.6699 5.87865C23.3393 11.1992 22.697 19.4828 22.697 19.4828C22.6209 19.7948 22.2692 19.7493 22.2353 19.4589Z" fill="#FFDDA0"/>
<path d="M19.5032 17.6396C19.5032 17.6396 18.943 16.995 18.6459 16.5275C18.3091 16.0907 17.9077 15.3236 17.9077 15.3236C17.8771 15.2839 18.1154 15.1002 18.146 15.1399C18.146 15.1399 18.7857 15.7232 19.0828 16.1907C19.3798 16.6582 19.7018 17.4865 19.7018 17.4865C19.763 17.5659 19.5735 17.6487 19.5032 17.6396Z" fill="#FFDDA0"/>
<path d="M20.6016 15.7793C20.6016 15.7793 19.9586 14.9453 19.6094 14.3281C19.2511 13.7812 18.7669 12.8247 18.7669 12.8247C18.7363 12.7849 18.9746 12.6012 19.0052 12.6409C19.0052 12.6409 19.7276 13.4137 20.1166 14.0004C20.4658 14.6176 20.8796 15.565 20.8796 15.565C20.8308 15.666 20.6413 15.7487 20.6016 15.7793Z" fill="#FFDDA0"/>
<path d="M20.4814 12.0095C20.4814 12.0095 20.0924 11.4229 19.8566 11.0348C19.6604 10.6161 19.3815 10.008 19.3815 10.008L19.6198 9.82426C19.6198 9.82426 20.1585 10.3588 20.3944 10.7468C20.6302 11.1349 20.8206 11.8746 20.8206 11.8746C20.7412 11.9358 20.512 12.0492 20.4814 12.0095Z" fill="#FFDDA0"/>
<path d="M21.0563 9.22344C21.0563 9.22344 20.9735 9.03396 20.8204 8.83538C20.7071 8.60619 20.4927 8.32818 20.3702 8.16932C20.1038 7.74155 19.733 7.01425 19.733 7.01425C19.7024 6.97453 19.9407 6.79082 19.9713 6.83054C19.9713 6.83054 20.5804 7.37412 20.8775 7.84161C20.9908 8.07081 21.1654 8.37943 21.1994 8.66986C21.2731 8.92968 21.3161 9.14978 21.3161 9.14978C21.3467 9.18949 21.0869 9.26315 21.0563 9.22344Z" fill="#FFDDA0"/>
<path d="M37.0459 41.7906C37.0459 41.7906 40.8704 41.2483 45.9666 40.5488C50.6226 39.9353 56.4097 39.1462 60.9251 38.5146C56.7041 37.1463 51.4861 35.4703 47.3264 34.1814C42.5916 32.6394 39.0559 31.5028 39.0559 31.5028C38.542 31.329 38.6975 30.9559 39.1808 31.0899C39.1808 31.0899 42.7256 32.1562 47.4786 33.5575C49.8551 34.2582 52.5345 35.1053 55.2229 35.882C58.5568 36.9211 61.9304 37.9295 64.9217 38.8527C64.671 38.856 64.1911 38.9727 63.7202 39.0191C60.8159 39.3586 57.5417 39.7932 54.1972 40.2188C51.3632 40.5674 48.4986 40.8762 45.9551 41.1909C40.8373 41.7804 37.022 42.2523 37.022 42.2523C36.5909 42.2681 36.5354 41.8676 37.0459 41.7906Z" fill="#FFDDA0"/>
<path d="M35.6067 36.8848C35.6067 36.8848 43.9052 37.1357 49.2257 37.4663C54.5462 37.7968 62.8299 38.4391 62.8299 38.4391C63.1112 38.4755 63.0567 38.8975 62.8059 38.9008C62.8059 38.9008 54.5074 38.6499 49.1869 38.3194C43.8664 37.9888 35.5827 37.3465 35.5827 37.3465C35.2708 37.2704 35.2856 36.879 35.6067 36.8848Z" fill="#FFDDA0"/>
<path d="M37.426 34.1524C37.426 34.1524 38.0706 33.5922 38.5381 33.2951C38.9749 32.9583 39.7419 32.5569 39.7419 32.5569C39.7817 32.5263 39.9654 32.7646 39.9257 32.7952C39.9257 32.7952 39.3423 33.4348 38.8749 33.7319C38.4074 34.029 37.5791 34.351 37.5791 34.351C37.4997 34.4122 37.3863 34.183 37.426 34.1524Z" fill="#FFDDA0"/>
<path d="M39.2861 35.2511C39.2861 35.2511 40.1202 34.6081 40.7374 34.2589C41.2843 33.9006 42.2408 33.4164 42.2408 33.4164C42.2805 33.3858 42.4642 33.6241 42.4245 33.6547C42.4245 33.6547 41.6517 34.3772 41.0651 34.7661C40.4479 35.1153 39.5005 35.5291 39.5005 35.5291C39.3995 35.4803 39.2464 35.2817 39.2861 35.2511Z" fill="#FFDDA0"/>
<path d="M42.9858 35.1218C42.9858 35.1218 43.5724 34.7328 43.9605 34.497C44.3791 34.3008 44.9873 34.0219 44.9873 34.0219L45.171 34.2602C45.171 34.2602 44.6365 34.7989 44.2484 35.0348C43.8604 35.2707 43.1207 35.461 43.1207 35.461C43.0991 35.351 43.0164 35.1615 42.9858 35.1218Z" fill="#FFDDA0"/>
<path d="M45.8024 35.7363C45.8024 35.7363 45.9919 35.6536 46.1905 35.5005C46.4196 35.3871 46.6977 35.1728 46.8565 35.0503C47.2843 34.7838 48.0116 34.4131 48.0116 34.4131C48.0513 34.3824 48.235 34.6207 48.1953 34.6514C48.1953 34.6514 47.6517 35.2604 47.1842 35.5575C46.955 35.6709 46.6464 35.8455 46.356 35.8794C46.0962 35.9531 45.8761 35.9961 45.8761 35.9961L45.8024 35.7363Z" fill="#FFDDA0"/>
<path d="M13.7563 50.1844C13.7563 50.1844 14.2985 54.0089 14.9981 59.1051C15.6116 63.7611 16.4006 69.5482 17.0323 74.0636C18.4006 69.8426 20.0766 64.6246 21.3655 60.4649C22.9075 55.7301 24.0441 52.1943 24.0441 52.1943C24.2178 51.6805 24.591 51.836 24.457 52.3193C24.457 52.3193 23.3907 55.8641 21.9894 60.6171C21.2887 62.9936 20.4416 65.6729 19.6648 68.3614C18.6258 71.6953 17.6174 75.0689 16.6942 78.0602C16.6909 77.8094 16.5742 77.3295 16.5278 76.8587C16.1883 73.9544 15.7537 70.6802 15.3281 67.3357C14.9795 64.5017 14.6706 61.6371 14.356 59.0935C13.7665 53.9758 13.2945 50.1605 13.2945 50.1605C13.2788 49.7294 13.6793 49.6739 13.7563 50.1844Z" fill="#FFDDA0"/>
<path d="M19.2174 47.494C19.2174 47.494 18.811 56.1657 18.3737 61.7584C17.9761 67.3206 17.1079 75.9683 17.1079 75.9683C17.0715 76.2497 16.6802 76.2348 16.6462 75.9444C16.6462 75.9444 17.0527 67.2727 17.4899 61.6799C17.8875 56.1177 18.7557 47.47 18.7557 47.47C18.8318 47.158 19.1834 47.2035 19.2174 47.494Z" fill="#FFDDA0"/>
<path d="M21.3945 50.5644C21.3945 50.5644 21.9548 51.2089 22.2519 51.6764C22.5887 52.1133 22.99 52.8803 22.99 52.8803C23.0207 52.92 22.7824 53.1037 22.7517 53.064C22.7517 53.064 22.1121 52.4807 21.815 52.0132C21.5179 51.5457 21.196 50.7175 21.196 50.7175C21.1347 50.6381 21.3639 50.5247 21.3945 50.5644Z" fill="#FFDDA0"/>
<path d="M20.2957 52.4246C20.2957 52.4246 20.9387 53.2586 21.2879 53.8759C21.6463 54.4228 22.1304 55.3793 22.1304 55.3793C22.161 55.419 21.9227 55.6027 21.8921 55.563C21.8921 55.563 21.1697 54.7902 20.7807 54.2036C20.4315 53.5863 20.0177 52.6389 20.0177 52.6389C20.0665 52.538 20.2957 52.4246 20.2957 52.4246Z" fill="#FFDDA0"/>
<path d="M20.4556 56.1638C20.4556 56.1638 20.8446 56.7505 21.0804 57.1385C21.2766 57.5572 21.5555 58.1653 21.5555 58.1653L21.3172 58.349C21.3172 58.349 20.7785 57.8146 20.5426 57.4265C20.3068 57.0384 20.1164 56.2987 20.1164 56.2987C20.1958 56.2375 20.425 56.1241 20.4556 56.1638Z" fill="#FFDDA0"/>
<path d="M19.8412 58.9805C19.8412 58.9805 19.9239 59.17 20.077 59.3686C20.1904 59.5978 20.4048 59.8758 20.5272 60.0347C20.7937 60.4624 21.1645 61.1897 21.1645 61.1897C21.1951 61.2295 20.9568 61.4132 20.9262 61.3735C20.9262 61.3735 20.3171 60.8299 20.02 60.3624C19.9067 60.1332 19.732 59.8246 19.6981 59.5341C19.6244 59.2743 19.5814 59.0542 19.5814 59.0542C19.5508 59.0145 19.8106 58.9408 19.8412 58.9805Z" fill="#FFDDA0"/>
<path d="M5.16392 27.0479C5.16392 27.0479 1.33949 27.5902 -3.75672 28.2897C-8.41274 28.9032 -14.1999 29.6922 -18.7152 30.3239C-14.4943 31.6922 -9.27625 33.3682 -5.11656 34.6571C-0.381776 36.1991 3.15401 37.3357 3.15401 37.3357C3.66787 37.5094 3.51234 37.8826 3.0291 37.7486C3.0291 37.7486 -0.515783 36.6823 -5.26877 35.281C-7.64526 34.5803 -10.3246 33.7332 -13.013 32.9564C-16.3469 31.9174 -19.7205 30.909 -22.7118 29.9858C-22.4611 29.9825 -21.9812 29.8658 -21.5104 29.8194C-18.6061 29.4799 -15.3319 29.0453 -11.9873 28.6197C-9.15336 28.2711 -6.28875 27.9623 -3.74519 27.6476C1.37254 27.0581 5.18788 26.5862 5.18788 26.5862C5.6496 26.6101 5.67445 26.9709 5.16392 27.0479Z" fill="#FFDDA0"/>
<path d="M7.44478 32.6346C7.44478 32.6346 -1.07716 32.176 -6.5996 31.7478C-12.0823 31.289 -20.5894 30.4391 -20.5894 30.4391C-20.8707 30.4027 -20.8161 29.9807 -20.5654 29.9773C-20.5654 29.9773 -12.0435 30.4359 -6.52105 30.8641C-1.03833 31.3229 7.46875 32.1729 7.46875 32.1729C7.7807 32.249 7.76583 32.6404 7.44478 32.6346Z" fill="#FFDDA0"/>
<path d="M4.81441 34.7258C4.81441 34.7258 4.16987 35.286 3.70238 35.5831C3.26551 35.9199 2.4985 36.3213 2.4985 36.3213C2.45878 36.3519 2.27507 36.1136 2.31478 36.083C2.31478 36.083 2.89809 35.4433 3.36557 35.1462C3.83306 34.8491 4.66132 34.5272 4.66132 34.5272C4.74075 34.466 4.82351 34.6554 4.81441 34.7258Z" fill="#FFDDA0"/>
<path d="M2.91457 33.6577C2.91457 33.6577 2.08055 34.3007 1.4633 34.6499C0.91638 35.0083 -0.0401186 35.4924 -0.0401186 35.4924C-0.0798338 35.523 -0.263546 35.2847 -0.22383 35.2541C-0.22383 35.2541 0.548953 34.5317 1.13559 34.1427C1.75284 33.7935 2.70024 33.3797 2.70024 33.3797C2.84091 33.3979 2.92367 33.5874 2.91457 33.6577Z" fill="#FFDDA0"/>
<path d="M55.9276 73.838C55.9276 73.838 56.007 73.7767 56.1659 73.6543C56.3248 73.5318 56.4927 73.339 56.8104 73.094C57.3755 72.595 58.2187 71.8817 59.1776 70.8258C61.1567 68.7934 63.945 65.7573 66.6247 61.3485C69.3351 56.9793 71.8973 51.2681 73.3117 44.4787C73.9991 41.0994 74.4018 37.4329 74.3915 33.6415C74.4088 32.6784 74.3161 31.7367 74.3028 30.7339C74.2498 29.7616 74.1264 28.7803 74.0734 27.808C73.95 26.8267 73.8266 25.8453 73.6329 24.8549C73.4392 23.8644 73.2852 22.8434 73.0518 21.8835C72.1364 17.9036 70.7592 13.8997 68.7523 10.0646C66.8158 6.2386 64.3596 2.55995 61.436 -0.821614C55.5399 -7.48379 47.7954 -12.8476 39.1698 -15.8224L38.3837 -16.1028L37.5579 -16.3527L35.9063 -16.8523L34.2455 -17.2816L33.4412 -17.4214L32.6063 -17.6009L30.9365 -17.9599L29.2882 -18.2088C28.7255 -18.2816 28.1629 -18.3544 27.6002 -18.4271L25.9428 -18.6057C21.4448 -18.9372 16.9534 -18.7672 12.6615 -17.9279C3.95514 -16.408 -3.92934 -12.6723 -10.2043 -7.83454C-16.4794 -2.99678 -22.0981 3.67786 -25.7738 11.6407C-27.6468 15.6176 -28.9539 19.9179 -29.8083 24.3126L-30.0572 25.9609C-30.13 26.5236 -30.2334 27.0465 -30.2756 27.6489L-30.4542 29.3063L-30.5318 31.0125L-30.5706 31.8656L-30.6095 32.7187L-30.6168 34.434L-30.5538 36.1584L-30.5222 37.0206L-30.451 37.8522C-29.7991 46.9111 -26.5515 55.8051 -21.5689 63.1715C-19.0821 66.8899 -16.1097 70.1705 -12.9022 73.0166C-9.73454 75.8934 -6.18211 78.2837 -2.56601 80.1816C-1.66653 80.6912 -0.748859 81.0602 0.159712 81.4995C1.06828 81.9388 2.02567 82.2771 2.90363 82.6767C3.86101 83.0151 4.74807 83.3443 5.67484 83.643C6.6016 83.9416 7.52837 84.2403 8.46423 84.4686C12.1283 85.443 15.7765 85.9864 19.2196 86.1814C26.1453 86.5408 32.3205 85.5159 37.2355 84.0063C42.1504 82.4966 45.8663 80.5816 48.2956 79.2153C49.5301 78.5169 50.4345 77.883 51.0914 77.5031C51.4001 77.3285 51.6384 77.1448 51.7972 77.0223C51.9561 76.8998 52.0355 76.8386 52.0355 76.8386C54.7974 74.836 55.0548 75.3341 52.3632 77.3458C52.3632 77.3458 52.2838 77.407 52.1249 77.5295C51.9661 77.652 51.7369 77.7654 51.4191 78.0103C50.7928 78.4299 49.8884 79.0638 48.6539 79.7623C46.1758 81.2295 42.4599 83.1445 37.4655 84.7154C32.5109 86.2557 26.2563 87.3418 19.2204 87.0039C15.7377 86.8395 12.0191 86.287 8.28473 85.3035C7.34887 85.0752 6.42211 84.7765 5.45562 84.5085C4.52886 84.2099 3.57147 83.8715 2.61408 83.5332C1.69642 83.1642 0.708407 82.7861 -0.20017 82.3468C-1.10874 81.9075 -2.05703 81.4988 -2.95651 80.9892C-6.60323 79.0516 -10.226 76.6523 -13.464 73.7664C-16.7327 70.8407 -19.7357 67.5204 -22.2928 63.793C-27.4071 56.338 -30.7068 47.2942 -31.4017 38.0153L-31.5036 37.144L-31.5351 36.2818L-31.5981 34.5574L-31.5908 32.8421L-31.5826 31.9493L-31.5438 31.0961L-31.4264 29.3593L-31.2387 27.6316C-31.1659 27.0689 -31.0932 26.5063 -31.0204 25.9436L-30.7624 24.2249C-29.9295 19.7202 -28.5736 15.3189 -26.6915 11.2717C-23.0894 3.04908 -17.3424 -3.78776 -10.9086 -8.74799C-4.47471 -13.7082 3.59926 -17.5267 12.4156 -19.0681C16.8482 -19.8893 21.4099 -20.0501 25.9783 -19.7096L27.706 -19.5219C28.2687 -19.4491 28.8711 -19.4069 29.394 -19.3036L31.1127 -19.0455L32.8222 -18.7172L33.6571 -18.5377L34.5227 -18.3185L36.1834 -17.8891L37.835 -17.3895L38.6608 -17.1397L39.4775 -16.8195C48.305 -13.747 56.2117 -8.25502 62.1202 -1.41247C65.0745 2.00881 67.5522 5.79752 69.5193 9.66321C71.5171 13.5686 72.8852 17.6429 73.8313 21.6626C74.0953 22.6621 74.2493 23.6832 74.443 24.6736C74.6367 25.664 74.7203 26.676 74.8743 27.6971C74.958 28.709 75.0813 29.6904 75.0946 30.6932C75.108 31.6961 75.2007 32.6378 75.1437 33.6315C75.1448 37.4932 74.7024 41.1903 74.006 44.64C72.5427 51.5303 69.9011 57.3028 67.151 61.7026C64.4009 66.1023 61.5638 69.2394 59.5144 71.2627C58.5248 72.2789 57.6817 72.9922 57.1166 73.4912C56.8692 73.7452 56.6309 73.9289 56.4721 74.0514C56.3132 74.1739 56.2338 74.2351 56.2338 74.2351C53.5944 76.3966 53.3676 75.9382 55.9276 73.838Z" fill="#FFDDA0"/>
<path d="M3.00573 66.9576C3.00573 66.9576 4.31699 63.7305 5.36356 61.7205C6.41013 59.7106 8.22615 56.7275 8.22615 56.7275C8.27496 56.6265 8.81034 56.9103 8.76153 57.0112C8.76153 57.0112 7.45027 60.2384 6.4037 62.2483C5.35713 64.2583 3.54111 67.2414 3.54111 67.2414C3.42196 67.3333 2.98753 67.0983 3.00573 66.9576Z" fill="#FFDDA0"/>
<path d="M29.8384 69.3196C29.8384 69.3196 29.7465 69.2005 29.6331 68.9713C29.5198 68.7421 29.3451 68.4334 29.1796 68.0545C28.8486 67.2966 28.5051 66.3583 28.3238 65.5482C28.1732 64.7779 27.9795 63.7874 27.8685 62.9864C27.7576 62.1855 27.6897 61.6046 27.6897 61.6046C27.6988 61.5343 28.2184 61.387 28.2491 61.4267C28.2491 61.4267 28.3012 61.5764 28.4146 61.8056C28.5279 62.0348 28.6231 62.4047 28.758 62.7439C29.0187 63.4928 29.2828 64.4923 29.4731 65.232C29.6635 65.9717 29.8266 66.9225 30.0476 67.7019C30.1428 68.0718 30.238 68.4416 30.3207 68.6311C30.3944 68.8909 30.4159 69.001 30.4159 69.001C30.358 69.1723 29.9393 69.3684 29.8384 69.3196Z" fill="#FFDDA0"/>
<path d="M52.5959 49.5583C52.5959 49.5583 49.8222 49.1639 48.0605 48.6857C47.6476 48.5608 47.1338 48.3871 46.6199 48.2134C46.106 48.0396 45.6319 47.8353 45.1884 47.6707C44.341 47.3108 43.7047 46.9782 43.7047 46.9782C43.6038 46.9294 43.8172 46.3849 43.9181 46.4337C43.9181 46.4337 46.6157 47.1402 48.3468 47.5786C50.0381 48.0476 52.7083 48.9651 52.7083 48.9651C52.8399 49.0536 52.7059 49.5368 52.5959 49.5583Z" fill="#FFDDA0"/>
<path d="M56.9301 25.4478C56.9301 25.4478 54.3138 26.3251 52.6142 26.7489C50.9362 27.2827 48.2553 27.8298 48.2553 27.8298C48.1453 27.8514 47.9673 27.292 48.0774 27.2705C48.0774 27.2705 50.6507 26.1731 52.3287 25.6393C54.0986 25.2246 56.8622 24.8669 56.8622 24.8669C56.8928 24.9066 57.0095 25.3865 56.9301 25.4478Z" fill="#FFDDA0"/>
<path d="M33.8148 8.44214C33.8148 8.44214 34.6313 5.72308 35.351 4.02841C35.5156 3.58488 35.72 3.11074 35.9243 2.63659C36.0617 2.40407 36.1287 2.16245 36.266 1.92993C36.333 1.68831 36.4306 1.4864 36.4976 1.24478C36.8269 0.357727 37.0891 -0.287704 37.0891 -0.287704C37.138 -0.388656 37.6915 -0.245551 37.6427 -0.144599C37.6427 -0.144599 37.4814 0.549646 37.3235 1.49461C37.2564 1.73623 37.1894 1.97785 37.1531 2.25918C37.0861 2.5008 36.9793 2.77304 36.9123 3.01466C36.7386 3.52852 36.6046 4.01176 36.44 4.45529C35.7202 6.14996 34.4296 8.66468 34.4296 8.66468C34.2798 8.71682 33.8057 8.51248 33.8148 8.44214Z" fill="#FFDDA0"/>
<path d="M12.6323 3.30694C12.6323 3.30694 12.6198 3.12656 12.5768 2.90646C12.5735 2.65574 12.4783 2.28588 12.4228 1.8854C12.3119 1.08444 12.0478 0.0848979 11.8972 -0.685446C11.7465 -1.45579 11.5528 -2.44623 11.3318 -3.22568C11.2367 -3.59554 11.1415 -3.9654 11.0281 -4.19459C10.9544 -4.45441 10.9023 -4.60417 10.9023 -4.60417C10.8808 -4.71422 11.4095 -4.93188 11.4401 -4.89217C11.4401 -4.89217 11.532 -4.77302 11.6453 -4.54383C11.7587 -4.31463 11.964 -3.96629 12.1295 -3.58733C12.4911 -2.7897 12.8255 -1.78106 13.0465 -1.00162C13.2278 -0.191562 13.342 0.860118 13.3032 1.71322C13.319 2.14432 13.3041 2.53571 13.2768 2.74671C13.2801 2.99743 13.2222 3.16871 13.2222 3.16871C13.1552 3.41033 12.6538 3.41699 12.6323 3.30694Z" fill="#FFDDA0"/>
</g>
<defs>
<clipPath id="clip0_0_1158">
<rect width="106.815" height="108.871" fill="white" transform="translate(32.2218 -42) rotate(52.3694)"/>
</clipPath>
</defs>
</svg>
