<svg width="55" height="125" viewBox="0 0 55 125" fill="none" xmlns="http://www.w3.org/2000/svg">
<mask id="mask0_0_21" style="mask-type:alpha" maskUnits="userSpaceOnUse" x="0" y="0" width="55" height="125">
<rect width="55" height="125" fill="white"/>
</mask>
<g mask="url(#mask0_0_21)">
<path d="M46.6662 66.6301C46.6662 66.6301 37.6189 87.2746 28.6171 107.952C28.6171 107.952 28.6513 107.905 28.6856 107.859L28.7198 107.812C29.0505 107.551 29.37 107.21 29.7349 106.902C31.1493 105.638 32.7462 104.219 34.2632 102.815C39.8864 97.8038 46.5248 91.883 51.9997 86.9792C54.7599 84.5438 57.2237 82.3228 59.1513 80.6434C60.1322 79.7803 60.9306 79.0711 61.6263 78.5022C61.9571 78.2412 62.208 77.9937 62.4248 77.7931C62.5388 77.7326 62.573 77.6859 62.6072 77.6391C50.447 68.8041 47.2134 66.4547 47.2134 66.4547C46.2569 65.7598 46.6678 65.1987 47.6242 65.8936C47.6242 65.8936 51.04 68.3754 63.9519 77.6133C63.3702 78.1218 61.8873 79.4798 59.8341 81.426C57.9521 83.1386 55.4883 85.3596 52.7394 87.8748C47.2758 92.8584 40.683 98.8123 35.0598 103.823C31.1817 107.309 26.8246 111.162 25.0908 112.768C27.9465 106.391 30.8022 100.014 33.5093 94.03C35.8053 88.8936 37.987 84.104 39.8602 80.0215C43.5611 71.8232 46.0512 66.3265 46.0512 66.3265C46.5993 65.2922 47.1232 65.5296 46.6662 66.6301Z" fill="#FFDDA0" fill-opacity="0.59"/>
<path d="M52.9704 75.2051C52.9704 75.2051 45.5002 85.9148 40.5955 92.73C35.6456 99.5123 27.6788 109.86 27.6788 109.86C27.4076 110.232 26.8658 109.837 27.137 109.465C27.137 109.465 34.5621 98.7224 39.5119 91.9401C44.4618 85.1578 52.4286 74.8102 52.4286 74.8102C52.745 74.4715 53.1965 74.8006 52.9704 75.2051Z" fill="#FFDDA0" fill-opacity="0.59"/>
<path d="M46.7319 65.9707C46.7319 65.9707 47.6095 70.4255 48.0188 73.3158C48.4282 76.2061 48.8241 80.7434 48.8241 80.7434C48.8468 80.904 48.3651 80.9864 48.3423 80.8259C48.3423 80.8259 47.4647 76.3711 47.0554 73.4808C46.6461 70.5904 46.2502 66.0532 46.2502 66.0532C46.2619 65.8456 46.7091 65.8101 46.7319 65.9707Z" fill="#FFDDA0" fill-opacity="0.59"/>
<path d="M44.311 70.8295C44.311 70.8295 45.109 74.7223 45.4615 77.2112C45.7795 79.7471 46.1303 83.6753 46.1303 83.6753C46.153 83.8359 45.6255 83.8851 45.6486 83.7578C45.6486 83.7578 44.8506 79.865 44.4981 77.3761C44.18 74.8402 43.8293 70.912 43.8293 70.912C43.8524 70.7847 44.2538 70.7159 44.311 70.8295Z" fill="#FFDDA0" fill-opacity="0.59"/>
<path d="M42.1125 76.0658C42.1125 76.0658 42.8196 79.3162 43.1152 81.4037C43.4108 83.4911 43.6362 86.824 43.6362 86.824C43.6131 86.9513 43.1314 87.0338 43.1545 86.9065C43.1545 86.9065 42.4474 83.656 42.1518 81.5686C41.8562 79.4812 41.6308 76.1483 41.6308 76.1483C41.6195 76.068 42.1012 75.9855 42.1125 76.0658Z" fill="#FFDDA0" fill-opacity="0.59"/>
<path d="M40.0641 81.4823C40.0641 81.4823 40.6688 84.0103 40.8618 85.663C41.1006 87.349 41.258 89.9124 41.258 89.9124C41.2694 89.9927 40.7877 90.0752 40.7763 89.9949C40.7763 89.9949 40.1716 87.467 39.9786 85.8142C39.7399 84.1282 39.5824 81.5648 39.5824 81.5648C39.6055 81.4375 40.0069 81.3688 40.0641 81.4823Z" fill="#FFDDA0" fill-opacity="0.59"/>
<path d="M37.9886 85.8775C37.9886 85.8775 38.5478 88.0843 38.7525 89.5294C38.9571 90.9745 39.0347 93.2638 39.0347 93.2638C39.046 93.3441 38.5643 93.4266 38.5529 93.3463C38.5529 93.3463 37.9937 91.1395 37.789 89.6944C37.5844 88.2492 37.5069 85.96 37.5069 85.96C37.5413 85.913 37.9772 85.7972 37.9886 85.8775Z" fill="#FFDDA0" fill-opacity="0.59"/>
<path d="M35.9576 90.3053C35.9576 90.3053 36.46 92.1107 36.6305 93.315C36.8011 94.5193 36.8218 96.4071 36.8218 96.4071C36.8331 96.4874 36.3514 96.5699 36.34 96.4896C36.34 96.4896 35.8377 94.6842 35.6671 93.4799C35.4965 92.2756 35.4759 90.3878 35.4759 90.3878C35.5103 90.3408 35.9118 90.2721 35.9576 90.3053Z" fill="#FFDDA0" fill-opacity="0.59"/>
<path d="M34.2691 94.5579C34.2691 94.5579 34.7146 95.9618 34.8511 96.9252C34.9875 97.8886 34.9513 99.375 34.9513 99.375C34.9169 99.422 34.4351 99.5045 34.4696 99.4575C34.4696 99.4575 34.0241 98.0536 33.8876 97.0902C33.7512 96.1267 33.7874 94.6404 33.7874 94.6404C33.8218 94.5934 34.2577 94.4776 34.2691 94.5579Z" fill="#FFDDA0" fill-opacity="0.59"/>
<path d="M32.7667 98.1642C32.7667 98.1642 33.1553 99.1667 33.2463 99.809C33.3373 100.451 33.2442 101.536 33.2442 101.536C33.2098 101.583 32.7281 101.666 32.7625 101.619C32.7625 101.619 32.3738 100.616 32.2829 99.9739C32.1919 99.3316 32.285 98.2467 32.285 98.2467C32.3194 98.1997 32.7667 98.1642 32.7667 98.1642Z" fill="#FFDDA0" fill-opacity="0.59"/>
<path d="M50.7792 72.8913C50.7792 72.8913 51.202 74.1346 51.3157 74.9374C51.4294 75.7403 51.3704 77.0661 51.3704 77.0661C51.336 77.1131 50.8543 77.1956 50.8887 77.1486C50.8887 77.1486 50.4659 75.9053 50.3522 75.1024C50.2385 74.2996 50.2975 72.9737 50.2975 72.9737C50.3319 72.9267 50.7334 72.858 50.7792 72.8913Z" fill="#FFDDA0" fill-opacity="0.59"/>
<path d="M30.9388 102.314C30.9388 102.314 31.2706 102.915 31.3275 103.317C31.3843 103.718 31.2344 104.402 31.2344 104.402L30.7527 104.484C30.7527 104.484 30.4209 103.883 30.364 103.482C30.3072 103.08 30.4571 102.397 30.4571 102.397C30.4915 102.35 30.893 102.281 30.9388 102.314Z" fill="#FFDDA0" fill-opacity="0.59"/>
<path d="M53.3985 80.1367C53.3985 80.1367 55.3492 79.6793 56.5997 79.5063C57.8503 79.3334 59.8464 79.1972 59.8464 79.1972C59.9268 79.1835 59.9378 79.5518 59.8919 79.5185C59.8919 79.5185 57.9413 79.9759 56.6907 80.1489C55.4402 80.3219 53.444 80.458 53.444 80.458C53.3982 80.4247 53.364 80.1838 53.3985 80.1367Z" fill="#FFDDA0" fill-opacity="0.59"/>
<path d="M54.7765 81.8233C54.7765 81.8233 55.3958 81.5528 55.8774 81.4704C56.3132 81.3547 56.9667 81.325 56.9667 81.325L57.0924 81.6323C57.0924 81.6323 56.9432 81.74 56.7483 81.8145C56.5188 81.936 56.2436 82.0243 56.0486 82.0987C55.567 82.1812 54.9022 82.1306 54.9022 82.1306C54.7761 82.1111 54.742 81.8703 54.7765 81.8233Z" fill="#FFDDA0" fill-opacity="0.59"/>
<path d="M50.6762 84.5287C50.6762 84.5287 51.7086 84.2697 52.3509 84.1597C53.0276 84.0027 54.0483 83.9513 54.0483 83.9513C54.0941 83.9846 54.174 84.2587 54.1396 84.3057C54.1396 84.3057 53.13 84.7253 52.4532 84.8823C51.7651 84.959 50.6873 84.8968 50.6873 84.8968C50.6759 84.8165 50.6762 84.5287 50.6762 84.5287Z" fill="#FFDDA0" fill-opacity="0.59"/>
<path d="M47.3771 87.103C47.3771 87.103 48.4558 86.8772 49.1442 86.8005C49.8327 86.7237 50.8882 86.6253 50.8882 86.6253C50.9341 86.6586 51.0141 86.9328 50.9796 86.9798C50.9796 86.9798 50.7041 87.0682 50.3942 87.2035C50.0385 87.3055 49.6024 87.4213 49.2008 87.4901C48.5123 87.5668 47.3881 87.4714 47.3881 87.4714C47.3768 87.3911 47.3771 87.103 47.3771 87.103Z" fill="#FFDDA0" fill-opacity="0.59"/>
<path d="M45.6001 89.1442C45.6001 89.1442 46.4265 88.8793 46.9888 88.783C47.5625 88.7671 48.4345 88.8235 48.4345 88.8235C48.4345 88.8235 48.48 89.1448 48.4455 89.1918C48.4455 89.1918 47.6191 89.4568 47.0912 89.506C46.5634 89.5552 45.7028 89.5792 45.7028 89.5792C45.6456 89.4656 45.6001 89.1442 45.6001 89.1442Z" fill="#FFDDA0" fill-opacity="0.59"/>
<path d="M57.9624 48.257C57.9624 48.257 37.4335 39.6484 16.87 31.0872C16.87 31.0872 16.916 31.1207 16.9621 31.1541L17.0082 31.1876C17.2616 31.5167 17.5957 31.8319 17.8951 32.1944C19.1275 33.5971 20.5096 35.1811 21.8802 36.6843C26.7636 42.2617 32.5339 48.8459 37.3137 54.2755C39.6862 57.014 41.8516 59.457 43.487 61.37C44.3278 62.3432 45.0188 63.1352 45.5716 63.8268C45.8249 64.1558 46.0668 64.404 46.2626 64.6187C46.3202 64.733 46.3662 64.7665 46.4123 64.8C55.7093 52.2013 58.2154 48.8757 58.2154 48.8757C58.943 47.8821 59.4961 48.284 58.7685 49.2775C58.7685 49.2775 56.1699 52.8259 46.4915 66.2347C45.9962 65.6574 44.6717 64.1877 42.7712 62.1546C41.1011 60.2889 38.9358 57.846 36.4824 55.1213C31.6219 49.7055 25.817 43.1686 20.9336 37.5912C17.5359 33.7455 13.7812 29.423 12.2148 27.7051C18.5543 30.4263 24.8939 33.1476 30.8415 35.729C35.9478 37.9167 40.7082 39.998 44.7654 41.7859C52.9146 45.3145 58.3781 47.6892 58.3781 47.6892C59.3117 48.15 59.0574 48.6901 57.9624 48.257Z" fill="#FFDDA0" fill-opacity="0.59"/>
<path d="M49.3573 55.1715C49.3573 55.1715 38.6519 47.7328 31.8437 42.8427C25.0703 37.9048 14.7481 29.9411 14.7481 29.9411C14.3769 29.6705 14.795 29.0977 15.1661 29.3682C15.1661 29.3682 25.9064 36.7592 32.6798 41.6971C39.4532 46.6349 49.7754 54.5987 49.7754 54.5987C50.1117 54.917 49.7633 55.3944 49.3573 55.1715Z" fill="#FFDDA0" fill-opacity="0.59"/>
<path d="M58.6193 48.7287C58.6193 48.7287 54.1574 49.7394 51.2671 50.2343C48.3768 50.7292 43.8466 51.2581 43.8466 51.2581C43.686 51.2856 43.6178 50.8039 43.7784 50.7764C43.7784 50.7764 48.2403 49.7657 51.1306 49.2709C54.021 48.776 58.5511 48.247 58.5511 48.247C58.7575 48.2528 58.7799 48.7012 58.6193 48.7287Z" fill="#FFDDA0" fill-opacity="0.59"/>
<path d="M53.7599 46.336C53.7599 46.336 49.8599 47.2505 47.371 47.6766C44.8363 48.0695 40.9139 48.5355 40.9139 48.5355C40.7533 48.563 40.7196 48.0343 40.8457 48.0538C40.8457 48.0538 44.7457 47.1393 47.2346 46.7132C49.7693 46.3203 53.6917 45.8543 53.6917 45.8543C53.8178 45.8738 53.9205 46.3085 53.7599 46.336Z" fill="#FFDDA0" fill-opacity="0.59"/>
<path d="M48.5247 44.1686C48.5247 44.1686 45.267 44.9731 43.1795 45.3305C41.092 45.6879 37.7661 46.0107 37.7661 46.0107C37.64 45.9912 37.5717 45.5094 37.6979 45.529C37.6979 45.529 40.9556 44.7245 43.043 44.367C45.1305 44.0096 48.4564 43.6868 48.4564 43.6868C48.5826 43.7064 48.6049 44.1548 48.5247 44.1686Z" fill="#FFDDA0" fill-opacity="0.59"/>
<path d="M43.1069 42.1546C43.1069 42.1546 40.5718 42.8354 38.9202 43.077C37.2342 43.3657 34.6768 43.598 34.6768 43.598C34.5965 43.6118 34.5283 43.1301 34.6085 43.1163C34.6085 43.1163 37.1436 42.4355 38.7952 42.1939C40.4812 41.9052 43.0386 41.6729 43.0386 41.6729C43.1648 41.6924 43.2216 42.0938 43.1069 42.1546Z" fill="#FFDDA0" fill-opacity="0.59"/>
<path d="M38.7121 40.0944C38.7121 40.0944 36.4982 40.7202 35.053 40.9676C33.6078 41.2151 31.3257 41.3591 31.3257 41.3591C31.2454 41.3729 31.1772 40.8911 31.2575 40.8774C31.2575 40.8774 33.4714 40.2516 34.9166 40.0042C36.3617 39.7567 38.6439 39.6127 38.6439 39.6127C38.6897 39.6459 38.7924 40.0806 38.7121 40.0944Z" fill="#FFDDA0" fill-opacity="0.59"/>
<path d="M34.2826 38.0839C34.2826 38.0839 32.4701 38.6409 31.2658 38.8471C30.0616 39.0533 28.1809 39.1286 28.1809 39.1286C28.1006 39.1424 28.0324 38.6607 28.1127 38.6469C28.1127 38.6469 29.9251 38.0899 31.1294 37.8837C32.3337 37.6775 34.2144 37.6022 34.2144 37.6022C34.2947 37.5884 34.3171 38.0369 34.2826 38.0839Z" fill="#FFDDA0" fill-opacity="0.59"/>
<path d="M30.0316 36.4132C30.0316 36.4132 28.6205 36.9015 27.6571 37.0665C26.6936 37.2314 25.2143 37.238 25.2143 37.238C25.1685 37.2048 25.1003 36.723 25.1461 36.7563C25.1461 36.7563 26.5572 36.268 27.5206 36.103C28.4841 35.9381 29.9634 35.9315 29.9634 35.9315C30.0436 35.9177 30.1119 36.3995 30.0316 36.4132Z" fill="#FFDDA0" fill-opacity="0.59"/>
<path d="M26.4256 34.9314C26.4256 34.9314 25.4159 35.351 24.7736 35.4609C24.1313 35.5709 23.0535 35.5088 23.0535 35.5088C23.0076 35.4755 22.9394 34.9938 22.9852 35.027C22.9852 35.027 23.9949 34.6075 24.6372 34.4975C25.2795 34.3875 26.3573 34.4497 26.3573 34.4497C26.4032 34.4829 26.4256 34.9314 26.4256 34.9314Z" fill="#FFDDA0" fill-opacity="0.59"/>
<path d="M51.6976 52.9338C51.6976 52.9338 50.4471 53.3946 49.6442 53.5321C48.8413 53.6695 47.5226 53.6486 47.5226 53.6486C47.4768 53.6153 47.4086 53.1336 47.4544 53.1669C47.4544 53.1669 48.7049 52.7061 49.5077 52.5686C50.3106 52.4311 51.6293 52.452 51.6293 52.452C51.6752 52.4853 51.732 52.8868 51.6976 52.9338Z" fill="#FFDDA0" fill-opacity="0.59"/>
<path d="M22.2753 33.1229C22.2753 33.1229 21.6671 33.4737 21.2657 33.5424C20.8643 33.6112 20.1879 33.4803 20.1879 33.4803L20.1197 32.9986C20.1197 32.9986 20.7278 32.6477 21.1293 32.579C21.5307 32.5103 22.2071 32.6411 22.2071 32.6411C22.2529 32.6744 22.3098 33.0758 22.2753 33.1229Z" fill="#FFDDA0" fill-opacity="0.59"/>
<path d="M44.5548 55.6089C44.5548 55.6089 44.9537 57.5546 45.0898 58.8055C45.2258 60.0563 45.3036 62.057 45.3036 62.057C45.315 62.1373 44.9482 62.159 44.9826 62.112C44.9826 62.112 44.5837 60.1663 44.4477 58.9154C44.3116 57.6645 44.2338 55.6638 44.2338 55.6638C44.2682 55.6168 44.509 55.5756 44.5548 55.6089Z" fill="#FFDDA0" fill-opacity="0.59"/>
<path d="M42.8069 56.9881C42.8069 56.9881 43.0585 57.6031 43.1268 58.085C43.2295 58.5198 43.2401 59.176 43.2401 59.176L42.9303 59.3113C42.9303 59.3113 42.8272 59.1644 42.7586 58.9705C42.6442 58.7434 42.5642 58.4692 42.4957 58.2753C42.4274 57.7934 42.497 57.1234 42.497 57.1234C42.5201 56.9961 42.7611 56.9548 42.8069 56.9881Z" fill="#FFDDA0" fill-opacity="0.59"/>
<path d="M40.117 52.8856C40.117 52.8856 40.3451 53.9156 40.436 54.5579C40.5728 55.2334 40.5945 56.2576 40.5945 56.2576C40.5601 56.3046 40.2847 56.3929 40.2389 56.3596C40.2389 56.3596 39.8502 55.3571 39.7135 54.6816C39.6569 53.9923 39.75 52.9073 39.75 52.9073C39.8303 52.8936 40.117 52.8856 40.117 52.8856Z" fill="#FFDDA0" fill-opacity="0.59"/>
<path d="M37.5456 49.5874C37.5456 49.5874 37.7392 50.6639 37.7957 51.3529C37.8521 52.0419 37.9196 53.0989 37.9196 53.0989C37.8852 53.1459 37.61 53.2341 37.5642 53.2009C37.5642 53.2009 37.4843 52.9269 37.3586 52.6196C37.2673 52.2653 37.1647 51.8308 37.1079 51.4296C37.0514 50.7406 37.1788 49.6091 37.1788 49.6091C37.2591 49.5954 37.5456 49.5874 37.5456 49.5874Z" fill="#FFDDA0" fill-opacity="0.59"/>
<path d="M35.4936 47.8101C35.4936 47.8101 35.7333 48.632 35.8128 49.1937C35.8121 49.7691 35.7309 50.646 35.7309 50.646C35.7309 50.646 35.4099 50.701 35.3641 50.6677C35.3641 50.6677 35.1244 49.8458 35.0907 49.3173C35.0569 48.7889 35.058 47.9257 35.058 47.9257C35.1726 47.865 35.4936 47.8101 35.4936 47.8101Z" fill="#FFDDA0" fill-opacity="0.59"/>
<path d="M74.6961 71.4723C69.562 78.4776 59.8474 80.1407 53.0187 75.1834C46.1901 70.226 44.814 60.5113 49.9481 53.506C55.0822 46.5007 64.7969 44.8376 71.6255 49.7949C78.4196 54.7993 79.8302 64.467 74.6961 71.4723Z" fill="#F7EDD9"/>
<path d="M74.7856 70.6728C74.7856 70.6728 74.8546 70.5788 74.9924 70.3907C75.1302 70.2026 75.3025 69.9676 75.4521 69.5719C75.5096 69.3976 75.6474 69.2095 75.7739 68.9412C75.8428 68.8471 75.8659 68.7198 75.9693 68.5788C75.9924 68.4515 76.0957 68.3104 76.1188 68.1831C76.2453 67.9148 76.3259 67.6132 76.4868 67.2978C76.6019 66.9492 76.6825 66.6476 76.7976 66.2989C77.2122 64.8711 77.4551 63.1027 77.297 61.1151C77.1388 59.1275 76.591 57.001 75.4812 54.9708C73.3418 50.8966 68.5295 47.6912 63.3352 47.5939C62.0165 47.573 60.755 47.6656 59.4818 47.9659C58.8396 48.0758 58.2545 48.2994 57.6236 48.4896C57.3483 48.5779 57.0385 48.7132 56.7287 48.8484C56.4189 48.9837 56.1436 49.072 55.8797 49.2405C53.6193 50.4087 51.7941 52.037 50.4503 53.8706C49.1064 55.7042 48.0716 57.9783 47.6788 60.4303C47.5982 60.7319 47.5978 61.0198 47.563 61.3547C47.5282 61.6895 47.4476 61.9912 47.4931 62.3123C47.5037 62.9683 47.4686 63.5911 47.5595 64.2334C47.6154 65.4984 47.9578 66.7555 48.3806 67.9988C50.0603 72.8918 54.5969 76.4733 59.1483 77.2563C61.4297 77.688 63.6773 77.591 65.5814 77.1005C67.5314 76.6433 69.1377 75.7926 70.3885 75.0439C70.6869 74.8283 71.0312 74.646 71.2493 74.4442C71.5019 74.1954 71.7658 74.0269 71.9839 73.8251C72.0987 73.7643 72.202 73.6233 72.3168 73.5625C72.3857 73.4685 72.5349 73.3607 72.6038 73.2666C72.7875 73.1118 72.9253 72.9238 73.1089 72.769C73.396 72.4731 73.6141 72.2713 73.7519 72.0833C73.8898 71.8952 73.9587 71.8012 73.9587 71.8012C74.5903 71.0352 75.0944 71.4011 74.4741 72.2474C74.4741 72.2474 74.4052 72.3415 74.2674 72.5295C74.1296 72.7176 73.9228 72.9997 73.6358 73.2955C73.4521 73.4503 73.3143 73.6384 73.1306 73.7932C73.0617 73.8872 72.9125 73.995 72.8436 74.089C72.7289 74.1498 72.6255 74.2908 72.5108 74.3516C72.2926 74.5534 71.9942 74.769 71.7417 75.0178C71.4891 75.2666 71.1449 75.4489 70.8465 75.6645C69.5726 76.5404 67.8515 77.4519 65.7868 77.9699C63.7679 78.5211 61.4056 78.6789 58.9178 78.2415C56.4758 77.8373 54.0576 76.7301 51.9268 75.0391C51.3769 74.6399 50.8959 74.1466 50.4607 73.6866C50.2202 73.44 50.0142 73.1464 49.7737 72.8997C49.5676 72.6061 49.3271 72.3595 49.1669 72.0991C48.8006 71.5451 48.3885 70.9578 48.0567 70.3567C47.7249 69.7557 47.4275 69.1076 47.2104 68.4458C46.7418 67.1693 46.4224 65.7849 46.3094 64.4063C46.2071 63.6837 46.2423 63.061 46.2202 62.3247C46.2092 61.9565 46.2898 61.6549 46.2788 61.2867C46.3136 60.9519 46.3026 60.5837 46.3832 60.2821C46.8222 57.5755 47.9146 55.1271 49.3962 53.1054C50.8779 51.0837 52.9326 49.334 55.3422 48.0579C55.6061 47.8894 55.9617 47.7874 56.2715 47.6521C56.5813 47.5168 56.891 47.3816 57.2466 47.2796C57.912 47.0423 58.5429 46.852 59.2655 46.7283C60.6189 46.4143 62.0065 46.3412 63.4055 46.3484C64.0705 46.3989 64.8158 46.4358 65.4922 46.5667C66.203 46.6505 66.8105 46.8754 67.4983 47.0866C67.8421 47.1922 68.1516 47.3448 68.4496 47.4171C68.759 47.5697 69.1029 47.6753 69.4123 47.8279C70.0312 48.1331 70.65 48.4383 71.1541 48.8042C73.3769 50.2738 75.2207 52.2606 76.3533 54.4514C77.5203 56.5952 78.0564 58.9292 78.1915 61.0441C78.3265 63.159 77.9688 64.9883 77.5312 66.5434C77.4161 66.892 77.3469 67.2739 77.186 67.5893C77.025 67.9046 76.9444 68.2062 76.7835 68.5216C76.7259 68.6959 76.657 68.79 76.6339 68.9173C76.565 69.0113 76.5075 69.1856 76.4386 69.2796C76.3466 69.501 76.1743 69.7361 76.1167 69.9104C75.9214 70.2728 75.7146 70.5548 75.5768 70.7429C75.4389 70.931 75.37 71.025 75.37 71.025C74.7498 71.8713 74.326 71.4916 74.7856 70.6728Z" fill="#FFDDA0" fill-opacity="0.59"/>
<path d="M69.3451 67.0825C69.3451 67.0825 69.3796 67.0355 69.4485 66.9415C69.5174 66.8475 69.6208 66.7064 69.7128 66.4851C69.9426 66.0757 70.23 65.492 70.4374 64.6342C70.6562 63.8567 70.795 62.805 70.7274 61.7476C70.6141 60.6568 70.3174 59.4331 69.7109 58.3445C68.4866 56.0872 65.8513 54.3181 62.9731 54.3174C61.5283 54.277 60.1404 54.6379 58.9127 55.2593C57.6851 55.8806 56.6634 56.7956 55.9054 57.8299C55.1474 58.8642 54.584 60.1119 54.3646 61.4651C54.1451 62.8184 54.2695 64.2773 54.7037 65.6009C55.6179 68.2813 58.0809 70.2855 60.6145 70.7563C61.887 71.0318 63.114 70.9862 64.1808 70.6803C65.259 70.4546 66.1769 69.9685 66.854 69.5237C67.5769 69.1121 68.082 68.6145 68.4035 68.2716C68.5871 68.1168 68.6905 67.9758 68.7594 67.8818C68.8283 67.7877 68.8628 67.7407 68.8628 67.7407C69.2187 67.3509 69.7573 67.6698 69.3782 68.187C69.3782 68.187 69.3438 68.234 69.2749 68.328C69.206 68.4221 69.0681 68.6101 68.8845 68.7649C68.5286 69.1548 68.0234 69.6524 67.2775 70.1913C66.5315 70.7301 65.5333 71.2299 64.3862 71.5497C63.1933 71.8361 61.8171 71.9895 60.384 71.7414C57.5293 71.3256 54.6307 69.1493 53.5336 66.0479C52.9505 64.5442 52.792 62.8445 53.0232 61.2836C53.2543 59.7228 53.9097 58.2538 54.7711 57.0784C55.6325 55.9031 56.8377 54.8333 58.2605 54.1375C59.6832 53.4416 61.3578 53.0727 62.9745 53.166C66.2768 53.2585 69.2098 55.3878 70.5141 57.9192C71.1891 59.2016 71.4972 60.5057 71.553 61.7707C71.6433 62.9887 71.4242 64.0541 71.1365 64.9257C70.8946 65.8305 70.527 66.4279 70.2627 66.8843C70.1707 67.1057 70.0329 67.2937 69.964 67.3877C69.8951 67.4818 69.8606 67.5288 69.8606 67.5288C69.5047 67.9186 69.0809 67.5389 69.3451 67.0825Z" fill="#FFDDA0" fill-opacity="0.59"/>
<path d="M32.1977 107.899C32.1977 107.899 32.2894 107.966 32.4268 108.065C32.5643 108.165 32.8279 108.285 33.1488 108.517C33.779 108.903 34.7301 109.521 35.9678 110.132C38.5005 111.466 42.2482 113.251 47.3267 114.56C52.3249 115.884 58.6425 116.653 65.6612 115.986C69.1935 115.669 72.8754 114.956 76.5807 113.828C77.5327 113.583 78.4276 113.224 79.3683 112.899C80.309 112.573 81.2383 112.168 82.1677 111.762C83.097 111.356 84.0263 110.95 84.9443 110.464C85.8622 109.978 86.826 109.525 87.6981 109.006C91.3472 106.901 94.8936 104.361 98.1195 101.301C101.345 98.2405 104.308 94.7729 106.801 90.8922C111.753 83.178 114.974 73.9919 115.547 64.6836L115.628 63.8062L115.629 62.9426L115.666 61.1683L115.622 59.4077L115.623 58.5441L115.544 57.6942C115.42 55.3717 115.056 53.0903 114.657 50.8561C113.734 46.3679 112.34 42.0426 110.418 38.0543C106.609 30.0307 100.791 23.5022 94.3292 18.8109C87.8671 14.1197 79.8441 10.6003 71.0042 9.441C66.6359 8.79084 62.0375 8.83797 57.4615 9.33354C55.202 9.63811 52.9082 9.98969 50.6484 10.5821L49.8111 10.7666L48.9851 11.0314L47.3332 11.5609L45.6468 12.1374L44.8209 12.4021L44.0063 12.7472C35.2757 16.1332 27.4597 21.9119 21.5571 29.0077C15.6546 36.1036 11.7344 44.4225 10.0162 52.6111C9.75121 53.6433 9.64682 54.648 9.46215 55.6664C9.27747 56.6848 9.17308 57.6895 9.0687 58.6942C9.01014 59.7321 8.85992 60.7035 8.83582 61.6945C8.81172 62.6854 8.74179 63.6431 8.79798 64.6203C8.81632 68.5233 9.29364 72.1832 10.0694 75.6276C11.575 82.4831 14.2401 88.2355 17.033 92.5681C19.8259 96.9007 22.6891 99.9877 24.7394 101.98C25.7474 103 26.5837 103.679 27.145 104.159C27.4314 104.439 27.6605 104.605 27.798 104.705C27.9355 104.805 28.0272 104.871 28.0272 104.871C30.7539 106.995 30.2832 107.446 27.5678 105.402C27.5678 105.402 27.4762 105.336 27.3387 105.236C27.2012 105.136 27.0065 104.923 26.6857 104.69C26.1244 104.21 25.2422 103.498 24.2343 102.478C22.184 100.485 19.2405 97.4121 16.3559 93.013C13.4713 88.6138 10.7604 82.8281 9.15175 75.8258C8.33019 72.3481 7.87595 68.5609 7.81178 64.6246C7.7556 63.6474 7.85998 62.6428 7.83825 61.6186C7.86235 60.6276 8.0012 59.5759 8.0253 58.585C8.16415 57.5333 8.26853 56.5286 8.40738 55.4769C8.59205 54.4585 8.7309 53.4068 8.99586 52.3746C9.88376 48.1931 11.2534 43.9292 13.2305 39.8901C15.1618 35.8179 17.6434 31.8569 20.6636 28.215C26.6237 20.9449 34.5775 14.9781 43.5032 11.5175L44.3178 11.1725L45.1782 10.8607L46.8645 10.2842L48.5623 9.78799L49.4341 9.55651L50.3059 9.32503C52.6001 8.68557 54.9398 8.36726 57.2337 8.01568C61.89 7.50635 66.5687 7.44549 71.0631 8.11517C80.1094 9.28021 88.3502 12.8857 94.9497 17.6768C101.549 22.4678 107.481 29.2234 111.394 37.3939C113.407 41.4487 114.778 45.9014 115.713 50.4698C116.123 52.7844 116.453 55.1127 116.576 57.4352L116.621 58.3322L116.666 59.2291L116.71 60.9896L116.673 62.7639L116.638 63.6745L116.556 64.5519C115.972 74.0678 112.693 83.4283 107.557 91.2973C105.03 95.2249 101.998 98.7866 98.6578 101.908C95.3629 105.062 91.7363 107.616 88.0069 109.734C87.1003 110.301 86.1365 110.753 85.2186 111.24C84.3006 111.726 83.3255 112.098 82.3617 112.551C81.3865 112.923 80.4572 113.329 79.5165 113.655C78.5758 113.98 77.6006 114.353 76.6486 114.598C72.863 115.74 69.1009 116.466 65.5227 116.749C58.3778 117.397 51.9686 116.562 46.8788 115.172C41.7889 113.782 37.9954 111.964 35.4168 110.596C34.1332 109.952 33.1822 109.334 32.5519 108.949C32.2311 108.716 31.9675 108.596 31.83 108.497C31.6925 108.397 31.6009 108.33 31.6009 108.33C28.9999 106.514 29.3903 106.077 32.1977 107.899Z" fill="#FFDDA0" fill-opacity="0.59"/>
<path d="M72.5171 69.1702C72.5171 69.1702 72.586 69.0762 72.6893 68.9352C72.7927 68.7941 72.965 68.5591 73.0914 68.2907C73.3788 67.707 73.8271 66.808 74.1495 65.6016C74.4376 64.4421 74.6801 62.9616 74.5788 61.3755C74.4774 59.7893 74.0209 58.0173 73.0481 56.3748C71.2632 53.0622 67.402 50.4752 63.1938 50.3733C62.1618 50.3444 61.1068 50.4428 60.0745 50.7017C59.0766 50.9137 58.1015 51.2862 57.1836 51.7722C55.3823 52.6973 53.8441 54.0297 52.7416 55.5341C51.639 57.0385 50.8341 58.9031 50.4993 60.8929C50.349 61.8642 50.256 62.9492 50.3581 63.9596C50.4256 65.017 50.6882 65.9999 50.9966 67.0161C52.3794 70.9731 56.0453 73.9225 59.7483 74.522C61.6055 74.8619 63.4059 74.8004 65.0002 74.4452C66.5945 74.0901 67.9369 73.408 68.9123 72.7476C69.9336 72.1205 70.6568 71.4211 71.1619 70.9235C71.4145 70.6747 71.5523 70.4866 71.6557 70.3456C71.7591 70.2045 71.828 70.1105 71.828 70.1105C72.3562 69.4856 72.8603 69.8515 72.3434 70.5568C72.3434 70.5568 72.2745 70.6508 72.1712 70.7918C72.0678 70.9329 71.8955 71.1679 71.643 71.4167C71.1378 71.9144 70.426 72.6941 69.3358 73.4152C68.2456 74.1363 66.8687 74.8654 65.2055 75.3146C63.5423 75.7638 61.547 75.8998 59.5637 75.5404C57.5459 75.228 55.5174 74.2596 53.799 72.8681C52.0462 71.5235 50.661 69.5816 49.8609 67.4161C49.4609 66.3334 49.1755 65.1899 49.0966 64.0522C48.9374 62.9282 49.019 61.763 49.1923 60.6644C49.5734 58.42 50.4358 56.3811 51.6762 54.6886C52.8821 53.0431 54.6039 51.556 56.6347 50.5094C57.6329 50.0096 58.7227 49.5763 59.8467 49.3839C60.9593 49.1112 62.1405 49.0324 63.2985 49.0808C65.6147 49.1777 67.8499 49.864 69.7175 51.1478C71.5737 52.3512 73.0395 53.9916 74.0349 55.7947C74.9846 57.5645 75.4639 59.4971 75.5422 61.2105C75.6204 62.924 75.3893 64.4848 74.9865 65.705C74.6295 66.9584 74.1468 67.9045 73.7792 68.5019C73.6183 68.8172 73.446 69.0523 73.3426 69.1934C73.2393 69.3344 73.1704 69.4284 73.1704 69.4284C72.5388 70.1944 72.115 69.8147 72.5171 69.1702Z" fill="#FFDDA0" fill-opacity="0.59"/>
<path d="M55.0936 65.6344C55.0936 65.6344 55.1283 65.3008 55.1859 64.8404C55.2435 64.38 55.2441 63.8065 55.3017 63.3462C55.3593 62.8858 55.4856 62.3317 55.6231 61.8577C55.7607 61.3836 55.8752 61.0364 55.8752 61.0364C55.9095 60.9895 56.2063 61.0616 56.2176 61.1416C56.2176 61.1416 56.183 61.4751 56.1254 61.9355C56.0678 62.3959 56.0215 62.9362 55.9639 63.3966C55.9063 63.857 55.7801 64.411 55.6425 64.8851C55.505 65.3592 55.3904 65.7064 55.3904 65.7064C55.3561 65.7532 55.0593 65.6812 55.0936 65.6344Z" fill="#FFDDA0" fill-opacity="0.59"/>
<path d="M56.2947 67.217C56.2947 67.217 56.3408 66.9632 56.3754 66.6293C56.4101 66.2954 56.4334 65.8815 56.4681 65.5476C56.5375 64.8798 56.7215 63.8645 56.7215 63.8645C56.7559 63.8176 57.0416 63.8097 57.0873 63.8429C57.0873 63.8429 57.1213 64.083 57.178 64.4832C57.2234 64.8034 57.2114 65.2974 57.1767 65.6313C57.1077 66.012 57.0043 66.4397 56.8896 66.7872C56.7749 67.1348 56.6489 67.4024 56.6489 67.4024C56.5575 67.336 56.2604 67.2639 56.2947 67.217Z" fill="#FFDDA0" fill-opacity="0.59"/>
<path d="M63.0416 43.4259C63.0416 43.4259 61.2793 39.4072 58.9562 34.0445C56.8622 29.1363 54.2302 23.0446 52.1589 18.2971C51.9347 23.3965 51.6746 29.6953 51.5194 34.7007C51.26 40.4233 51.0827 44.6918 51.0827 44.6918C51.0476 45.315 50.5886 45.2701 50.5893 44.694C50.5893 44.694 50.6862 40.4393 50.7849 34.7441C50.8343 31.8966 50.9529 28.6668 50.9912 25.4508C51.1223 21.4371 51.2075 17.3902 51.3151 13.792C51.3951 14.0663 51.6699 14.5542 51.8644 15.0558C53.123 18.132 54.5992 21.5824 56.0867 25.1132C57.3339 28.1091 58.5466 31.152 59.668 33.8403C61.8762 39.2639 63.5582 43.2963 63.5582 43.2963C63.6723 43.8116 63.282 43.9608 63.0416 43.4259Z" fill="#FFDDA0" fill-opacity="0.59"/>
<path d="M58.0243 46.7196C58.0243 46.7196 55.774 37.5146 54.5185 31.5556C53.263 25.5966 51.4491 16.2758 51.4491 16.2758C51.4036 15.9543 51.8858 15.8718 51.9658 16.1462C51.9658 16.1462 54.2161 25.3511 55.4716 31.3101C56.7271 37.2691 58.541 46.5899 58.541 46.5899C58.552 46.9585 58.1502 47.0273 58.0243 46.7196Z" fill="#FFDDA0" fill-opacity="0.59"/>
<path d="M54.6507 45.5916C54.6507 45.5916 53.8299 45.0672 53.356 44.6497C52.8473 44.2797 52.1654 43.5654 52.1654 43.5654C52.1191 43.5318 52.3273 43.2471 52.3736 43.2807C52.3736 43.2807 53.2638 43.7102 53.7377 44.1277C54.2117 44.5452 54.8242 45.3543 54.8242 45.3543C54.9167 45.4216 54.7316 45.5778 54.6507 45.5916Z" fill="#FFDDA0" fill-opacity="0.59"/>
<path d="M55.2598 43.1944C55.2598 43.1944 54.2887 42.4879 53.7108 41.9219C53.1444 41.4371 52.3122 40.5406 52.3122 40.5406C52.266 40.5069 52.4745 40.2218 52.5207 40.2555C52.5207 40.2555 53.5613 40.8669 54.174 41.3854C54.7519 41.9514 55.503 42.8618 55.503 42.8618C55.4798 42.9905 55.2945 43.1469 55.2598 43.1944Z" fill="#FFDDA0" fill-opacity="0.59"/>
<path d="M53.9191 39.0855C53.9191 39.0855 53.3074 38.5683 52.9266 38.2188C52.5805 37.8219 52.0844 37.2433 52.0844 37.2433L52.2926 36.9589C52.2926 36.9589 53.0545 37.3675 53.4353 37.717C53.8161 38.0664 54.2543 38.8208 54.2543 38.8208C54.1849 38.9156 53.9652 39.1191 53.9191 39.0855Z" fill="#FFDDA0" fill-opacity="0.59"/>
<path d="M53.6569 35.8372C53.6569 35.8372 53.5068 35.6554 53.2758 35.4874C53.0795 35.272 52.7562 35.0369 52.5714 34.9025C52.1441 34.5191 51.5091 33.8393 51.5091 33.8393C51.4629 33.8057 51.6712 33.521 51.7174 33.5546C51.7174 33.5546 52.5607 33.9497 53.0342 34.3667C53.2305 34.5821 53.5191 34.8647 53.646 35.175C53.8075 35.4379 53.9229 35.6671 53.9229 35.6671C53.9691 35.7007 53.7031 35.8708 53.6569 35.8372Z" fill="#FFDDA0" fill-opacity="0.59"/>
<path d="M58.9583 83.3224C58.9583 83.3224 60.7207 87.341 63.0437 92.7038C65.1378 97.612 67.7698 103.704 69.8411 108.451C70.0653 103.352 70.3254 97.0529 70.4806 92.0476C70.7399 86.3249 70.9172 82.0565 70.9172 82.0565C70.9524 81.4333 71.4114 81.4781 71.4107 82.0543C71.4107 82.0543 71.3137 86.309 71.215 92.0041C71.1657 94.8517 71.0471 98.0814 71.0088 101.297C70.8777 105.311 70.7925 109.358 70.6848 112.956C70.6048 112.682 70.33 112.194 70.1356 111.692C68.877 108.616 67.4008 105.166 65.9133 101.635C64.6661 98.6391 63.4533 95.5962 62.332 92.9079C60.1238 87.4844 58.4418 83.452 58.4418 83.452C58.2932 82.9837 58.718 82.7875 58.9583 83.3224Z" fill="#FFDDA0" fill-opacity="0.59"/>
<path d="M64.1625 78.52C64.1625 78.52 66.3543 88.1853 67.5746 94.478C68.8295 100.724 70.5047 110.518 70.5047 110.518C70.5502 110.84 70.1139 110.956 69.9881 110.648C69.9881 110.648 67.7963 100.983 66.5759 94.6901C65.3211 88.4445 63.6459 78.6496 63.6459 78.6496C63.6349 78.2812 64.0366 78.2124 64.1625 78.52Z" fill="#FFDDA0" fill-opacity="0.59"/>
<path d="M41.9934 60.367C41.9934 60.367 37.9462 62.2515 32.5461 64.7374C27.6047 66.9805 21.4709 69.7976 16.6899 72.0132C21.7546 72.091 28.011 72.1701 32.984 72.1814C38.6675 72.2765 42.9072 72.3312 42.9072 72.3312C43.5259 72.3486 43.4681 72.8104 42.8951 72.8264C42.8951 72.8264 38.6668 72.8519 33.0061 72.9172C30.1757 72.9499 26.9673 72.9241 23.7702 72.9784C19.7826 72.9627 15.7605 72.994 12.1854 72.9899C12.4605 72.9017 12.9536 72.6118 13.458 72.4022C16.5535 71.0504 20.0275 69.4695 23.5816 67.8748C26.5969 66.5368 29.6579 65.232 32.3636 64.0291C37.8209 61.6566 41.8795 59.8523 41.8795 59.8523C42.3953 59.7229 42.5323 60.1103 41.9934 60.367Z" fill="#FFDDA0" fill-opacity="0.59"/>
<path d="M46.2046 65.7231C46.2046 65.7231 36.6796 68.0936 30.4672 69.4861C24.2893 70.8315 14.6617 72.7676 14.6617 72.7676C14.3407 72.8226 14.2726 72.3412 14.5477 72.253C14.5477 72.253 24.0728 69.8825 30.2851 68.4901C36.463 67.1446 46.0907 65.2085 46.0907 65.2085C46.4574 65.1868 46.56 65.6212 46.2046 65.7231Z" fill="#FFDDA0" fill-opacity="0.59"/>
<path d="M43.9856 69.0907C43.9856 69.0907 43.4516 69.9159 43.0314 70.3955C42.6565 70.9081 41.9411 71.6013 41.9411 71.6013C41.907 71.6479 41.6349 71.4499 41.669 71.4033C41.669 71.4033 42.1123 70.5121 42.5325 70.0325C42.9527 69.5529 43.7588 68.9257 43.7588 68.9257C43.827 68.8326 43.9743 69.0111 43.9856 69.0907Z" fill="#FFDDA0" fill-opacity="0.59"/>
<path d="M41.5527 68.5223C41.5527 68.5223 40.8371 69.5009 40.2693 70.0873C39.7809 70.66 38.8839 71.5066 38.8839 71.5066C38.8498 71.5532 38.5777 71.3553 38.6117 71.3087C38.6117 71.3087 39.2367 70.2641 39.7591 69.6447C40.3269 69.0583 41.2353 68.2913 41.2353 68.2913C41.3941 68.2641 41.5415 68.4427 41.5527 68.5223Z" fill="#FFDDA0" fill-opacity="0.59"/>
<path d="M37.4779 69.8188C37.4779 69.8188 36.9542 70.4392 36.6014 70.8262C36.203 71.1802 35.6226 71.6879 35.6226 71.6879L35.3499 71.4896C35.3499 71.4896 35.7714 70.7234 36.1243 70.3364C36.4772 69.9494 37.2281 69.4942 37.2281 69.4942C37.319 69.5603 37.5121 69.7722 37.4779 69.8188Z" fill="#FFDDA0" fill-opacity="0.59"/>
<path d="M34.229 70.0802C34.229 70.0802 34.0471 70.2337 33.8764 70.467C33.6604 70.6672 33.4215 70.9937 33.2849 71.1803C32.8982 71.6137 32.216 72.2609 32.216 72.2609C32.1818 72.3076 31.9094 72.1094 31.9435 72.0628C31.9435 72.0628 32.3533 71.2174 32.7741 70.7373C32.9902 70.5371 33.2745 70.2437 33.5814 70.1095C33.8428 69.9423 34.0702 69.8218 34.0702 69.8218C34.1043 69.7751 34.2631 70.0335 34.229 70.0802Z" fill="#FFDDA0" fill-opacity="0.59"/>
<path d="M112.164 95.0706C112.164 95.0706 112.233 94.9766 112.37 94.7886C112.508 94.6005 112.635 94.3321 112.91 93.956C113.381 93.2175 114.094 92.1499 114.829 90.6671C116.392 87.7681 118.542 83.494 120.154 77.7495C121.812 72.0382 122.898 64.9035 122.391 56.9725C122.121 53.0305 121.449 48.8694 120.284 44.7104C120.01 43.6471 119.622 42.6447 119.302 41.5481C118.948 40.4986 118.513 39.4629 118.159 38.4134C117.724 37.3776 117.29 36.3418 116.775 35.3198C116.26 34.2978 115.78 33.2288 115.23 32.2538C113.011 28.1932 110.275 24.2621 106.896 20.7288C103.598 17.1818 99.7713 13.9719 95.5201 11.2459C86.9948 5.92109 76.8273 2.64549 66.4155 2.28987L65.4637 2.24722L64.4776 2.25158L62.5052 2.26031L60.5442 2.34932L59.6152 2.46724L58.6404 2.55189L56.6908 2.72119L54.7984 3.00404C54.1561 3.114 53.5138 3.22396 52.8715 3.33392L50.9904 3.69706C45.9321 4.85085 41.0336 6.5529 36.5586 8.92255C27.4253 13.5288 19.8719 20.2904 14.4277 27.7189C8.98352 35.1473 4.82155 44.371 3.19293 54.3534C2.33848 59.3514 2.20626 64.5136 2.6016 69.6267L2.82871 71.5203C2.91969 72.1626 2.96485 72.7716 3.10166 73.4471L3.40906 75.327L3.84258 77.2264L4.05934 78.1761L4.2761 79.1258L4.7899 81.0114L5.38399 82.8833L5.68104 83.8193L6.01254 84.7082C9.48713 94.4337 15.7724 103.102 23.5052 109.508C27.3773 112.752 31.6515 115.35 36.0525 117.393C40.4191 119.482 45.0616 120.908 49.6245 121.771C50.771 122.027 51.8946 122.123 53.0297 122.299C54.1647 122.474 55.3228 122.523 56.4121 122.665C57.5702 122.714 58.648 122.776 59.7603 122.791C60.8726 122.806 61.9849 122.821 63.0859 122.756C67.4207 122.59 71.6069 121.955 75.461 121.008C83.2037 119.066 89.6979 115.857 94.6556 112.541C99.6133 109.225 103.126 105.869 105.388 103.549C106.536 102.366 107.34 101.365 107.948 100.726C108.236 100.43 108.442 100.148 108.58 99.9603C108.718 99.7722 108.787 99.6782 108.787 99.6782C111.222 96.5477 111.657 97.0077 109.302 100.124C109.302 100.124 109.233 100.218 109.096 100.407C108.958 100.595 108.74 100.796 108.464 101.173C107.901 101.844 107.097 102.846 105.949 104.029C103.664 106.476 100.152 109.832 95.1249 113.242C90.1327 116.605 83.5696 119.907 75.7122 121.91C71.8237 122.905 67.5571 123.553 63.142 123.733C62.0411 123.799 60.9288 123.783 59.7821 123.815C58.6698 123.8 57.5116 123.752 56.3535 123.703C55.2298 123.608 54.0259 123.526 52.8908 123.35C51.7558 123.175 50.5863 123.046 49.4399 122.79C44.8311 121.893 40.1083 120.481 35.6614 118.406C31.1688 116.296 26.8488 113.664 22.8964 110.435C14.9916 103.976 8.6033 95.1606 5.01431 85.208L4.63698 84.2858L4.33993 83.3499L3.74584 81.478L3.23204 79.5923L2.96944 78.6094L2.75269 77.6597L2.35363 75.7133L2.03485 73.7531C1.94387 73.1108 1.85288 72.4686 1.7619 71.8263L1.52341 69.8524C1.07088 64.6258 1.22618 59.3362 2.06926 54.2579C3.53764 44.0152 7.79161 34.5702 13.3736 26.9536C18.9556 19.3371 26.6927 12.4207 35.9407 7.75371C40.5763 5.35657 45.5551 3.64077 50.6937 2.47324L52.6551 2.09635C53.2974 1.98639 53.9741 1.82942 54.582 1.76648L56.5547 1.46988L58.5387 1.25356L59.5135 1.16891L60.5342 1.11753L62.4952 1.02852L64.4675 1.01979L65.4537 1.01543L66.4513 1.09135C77.1153 1.48603 87.5006 4.8477 96.0945 10.3663C100.391 13.1256 104.275 16.4491 107.619 20.0294C111.009 23.6429 113.757 27.6543 116.022 31.7482C116.617 32.7564 117.098 33.8255 117.613 34.8475C118.127 35.8695 118.527 36.9523 119.008 38.0213C119.408 39.1041 119.842 40.1398 120.162 41.2364C120.482 42.3329 120.871 43.3354 121.11 44.4456C122.286 48.6849 122.924 52.8931 123.206 56.9154C123.689 64.9737 122.534 72.2024 120.841 77.9607C119.149 83.7189 116.977 88.1203 115.333 91.0331C114.552 92.4826 113.84 93.5502 113.369 94.2887C113.173 94.6511 112.966 94.9332 112.829 95.1213C112.691 95.3093 112.622 95.4034 112.622 95.4034C110.37 98.667 109.981 98.2402 112.164 95.0706Z" fill="#FFDDA0" fill-opacity="0.59"/>
<path d="M18.8329 56.0874C18.8329 56.0874 19.777 56.0496 20.9743 56.0511C21.596 56.0686 22.2982 56.0722 22.9659 56.1231C23.6336 56.1739 24.3012 56.2248 24.9343 56.3229C25.5214 56.3875 26.2005 56.519 26.845 56.6977C27.1442 56.7704 27.524 56.8292 27.8233 56.9019C28.1225 56.9745 28.4678 57.0806 28.767 57.1532C29.9294 57.491 30.8271 57.709 30.8271 57.709C30.9537 57.7286 30.8033 58.415 30.6767 58.3954C30.6767 58.3954 29.7558 58.3053 28.5357 58.1426C28.2364 58.0699 27.9026 58.0445 27.5687 58.0191C27.2349 57.9936 26.9011 57.9682 26.5672 57.9428C25.8996 57.8919 25.2205 57.7604 24.6334 57.6958C24.0464 57.6311 23.4133 57.533 22.7342 57.4015C22.0551 57.27 21.422 57.172 20.835 57.1073C19.6148 56.9446 18.7285 56.8072 18.7285 56.8072C18.6711 56.6932 18.6717 56.115 18.8329 56.0874Z" fill="#FFDDA0" fill-opacity="0.59"/>
<path d="M22.2144 84.2982C22.2144 84.2982 25.1387 82.4054 27.1146 81.33C29.0906 80.2547 32.2996 78.9273 32.2996 78.9273C32.4138 78.8668 32.6986 79.4323 32.63 79.5259C32.63 79.5259 29.7057 81.4187 27.7297 82.494C25.7538 83.5694 22.5448 84.8968 22.5448 84.8968C22.3849 84.9241 22.1458 84.3918 22.2144 84.2982Z" fill="#FFDDA0" fill-opacity="0.59"/>
<path d="M52.2582 105.145C52.2582 105.145 52.719 101.177 53.2581 98.6292C53.7972 96.0809 54.8855 92.2107 54.8855 92.2107C54.9084 92.084 55.5815 92.2143 55.5585 92.3411C55.5585 92.3411 55.0977 96.3085 54.5586 98.8568C54.0195 101.405 52.9313 105.275 52.9313 105.275C52.8284 105.416 52.2809 105.305 52.2582 105.145Z" fill="#FFDDA0" fill-opacity="0.59"/>
<path d="M42.4468 32.0335C42.4468 32.0335 42.378 31.8387 42.263 31.6105C42.1827 31.3351 41.9643 30.9593 41.7805 30.5364C41.4129 29.6905 40.8152 28.6774 40.413 27.8787C40.0108 27.08 39.4937 26.0531 39.0109 25.2683C38.7925 24.8925 38.5741 24.5168 38.3785 24.3024C38.2176 24.0408 38.1141 23.8933 38.1141 23.8933C38.0566 23.7792 38.5754 23.3599 38.6214 23.3933C38.6214 23.3933 38.7595 23.4936 38.955 23.708C39.1506 23.9224 39.4842 24.2371 39.7832 24.599C40.4273 25.3563 41.1057 26.3555 41.5885 27.1404C42.0368 27.9725 42.4847 29.0939 42.7024 30.0481C42.8516 30.5182 42.9548 30.955 42.9891 31.197C43.0694 31.4724 43.0576 31.681 43.0576 31.681C43.0573 31.9703 42.5043 32.1476 42.4468 32.0335Z" fill="#FFDDA0" fill-opacity="0.59"/>
</g>
</svg>
